<?xml version="1.0" encoding="UTF-8"?><svg id="Layer_1" xmlns="http://www.w3.org/2000/svg" viewBox="0 0 300 300"><defs><style>.cls-1{fill:#f8f8f7;}.cls-2{fill:#89836a;}.cls-3{stroke-width:5px;}.cls-3,.cls-4{fill:none;stroke:#f8f8f7;stroke-miterlimit:10;}</style></defs><circle class="cls-2" cx="150" cy="150" r="149.5"/><rect class="cls-3" x="59.12" y="92.5" width="194.38" height="115" rx="11.35" ry="11.35"/><path class="cls-1" d="M153.12,146.12l-1.44,12.98h-34.86v-1.03l27.31-38.23h-10c-1.16,0-2.14,.02-2.92,.06-.79,.04-1.5,.12-2.16,.23-1.35,.25-2.86,1.32-4.54,3.19-1.68,1.88-2.95,3.86-3.81,5.95h-2.14l1.32-11.75h32.5v1.03l-27.31,38.23h10.3c1.73,0,3.58-.12,5.53-.35s3.23-.63,3.82-1.2c1.33-1.21,2.56-2.7,3.7-4.45s1.99-3.31,2.54-4.66h2.14Z"/><path class="cls-1" d="M176.17,180.87c-2.59,0-5.07-.49-7.44-1.47s-4.48-2.38-6.31-4.22c-1.81-1.84-3.26-4.08-4.34-6.73-1.08-2.65-1.62-5.63-1.62-8.96s.53-6.34,1.59-9.04c1.06-2.71,2.53-5.04,4.4-6.99,1.85-1.93,4.04-3.43,6.57-4.49,2.53-1.06,5.22-1.58,8.1-1.58,2.14,0,4.07,.25,5.8,.76,1.73,.51,3.38,1.22,4.95,2.14l1.25-1.99h2.45l.28,14.82h-2.51c-.33-1.45-.82-3.01-1.47-4.7s-1.42-3.12-2.29-4.29c-.98-1.33-2.14-2.37-3.48-3.12s-2.88-1.13-4.61-1.13c-1.98,0-3.81,.42-5.51,1.26-1.7,.84-3.17,2.08-4.41,3.72-1.18,1.58-2.11,3.6-2.78,6.04s-1.01,5.17-1.01,8.18c0,2.66,.35,5.1,1.05,7.32,.7,2.22,1.71,4.17,3.01,5.85,1.3,1.66,2.85,2.96,4.63,3.9,1.78,.94,3.77,1.41,5.97,1.41,1.65,0,3.17-.25,4.55-.75s2.59-1.16,3.6-1.98c1.02-.86,1.91-1.84,2.69-2.93s1.41-2.29,1.89-3.57l2.29,1.05c-1.75,4.12-4.07,7.07-6.97,8.83s-6.33,2.65-10.33,2.65Z"/><rect class="cls-4" x="72.88" y="102.5" width="167.82" height="94.29" rx="9.55" ry="9.55"/></svg>