<?xml version="1.0" encoding="UTF-8"?><svg id="Layer_1" xmlns="http://www.w3.org/2000/svg" viewBox="0 0 300 300"><defs><style>.cls-1{fill:#f7f7f6;}.cls-2{fill:#89836a;}</style></defs><circle class="cls-2" cx="150" cy="150" r="149.5"/><g><path class="cls-1" d="M114.49,146.36c1.28,10.3,5.95,20,13.45,27.23,7.85,7.56,19.77,13.56,30.63,9.23s17.74-15.9,22.01-26.61c2.25-5.63,3.52-11.91,2.01-17.9-.77-3.05-2.34-5.83-4.04-8.45s-3.29-5-4.99-7.47c-3.36-4.86-6.95-9.62-11.21-13.73-2.06-1.99-4.41-3.65-6.44-5.66-1.44-1.43-2.95-3.65-2.17-5.5,.35-.84,1.32-1.56,2.06-2.19,1.04-.88,2.05-1.77,3.01-2.73,2.07-2.07,3.92-4.35,5.63-6.72,3.29-4.55,5.93-9.53,8.44-14.54,1.33-2.64,2.71-5.22,3.07-8.2,.27-2.24-.09-4.4-.67-6.56-1.47-5.48-4.95-10.57-9.8-13.58-9.14-5.66-21.38-5.39-30.91-.91-9.03,4.25-15.32,14.03-15.1,24.06,.05,2.51,.38,5.6,1.66,7.82,1.91,3.31,5.97,3.07,8.67,.96,3.98-3.12,8.41-5.79,13.08-7.82,2.53-1.1,5.17-1.98,7.82-2.74,3.71-1.06,2.13-6.85-1.6-5.79-5.15,1.47-10.18,3.49-14.84,6.13-2.07,1.17-4.08,2.47-6,3.88-.41,.3-2.71,1.79-2.69,1.99-.02-.17,1.07,.3,.71,.33,0,0-.3-1.03-.36-1.29-.91-3.64-.42-7.81,1.01-11.27,1.57-3.8,4.25-7.16,7.52-9.34,7.21-4.81,17.74-5.78,25.56-2.16,4.11,1.91,7.3,5.17,8.9,9.46,.4,1.08,.7,2.2,.96,3.33,.04,.17,.07,.35,.12,.52,.19,.73-.02-.47,0-.02,.03,.5,.05,.99,.04,1.49,0,2.22-1.05,4.09-2.06,6.1-2.32,4.65-4.73,9.27-7.65,13.57-1.32,1.95-2.75,3.81-4.34,5.55-1.74,1.9-3.75,3.45-5.58,5.24-4.47,4.39-3.03,10.7,.96,14.85,1.87,1.96,4.13,3.51,6.11,5.36s3.77,3.81,5.48,5.87c3.42,4.12,6.37,8.6,9.32,13.05,1.39,2.11,2.89,4.24,3.85,6.59,1.01,2.47,1.27,5.1,1.06,7.74-.41,5.21-2.72,10.21-5.08,14.79-2.38,4.61-5.1,9.12-8.96,12.66-3.43,3.14-7.93,5.41-12.65,5.34s-9.6-2.44-13.54-5.1c-7.17-4.83-12.59-12.44-15.11-20.69-.61-1.99-1.14-4.36-1.37-6.2-.2-1.61-1.24-3-3-3-1.47,0-3.2,1.38-3,3h0Z"/><path class="cls-1" d="M131.96,178.24c1.05,3.33,1.75,6.75,1.96,10.25,.08,1.31,.16,2.95,0,4.11s-.58,2.17-1.37,2.69c-.7,.47-2.03,.79-2.83,.89-1.52,.19-3.06,.19-4.59,.3-3.31,.25-6.61,.72-9.84,1.45-12.56,2.83-24.12,9.79-31.34,20.61-3.86,5.8-6.2,12.51-6.68,19.46-.11,1.62,1.46,3,3,3,1.72,0,2.89-1.38,3-3,.81-11.58,8.27-22.03,18.06-28.07,5.46-3.37,11.55-5.51,17.84-6.68,3.01-.56,6.03-.75,9.09-.95s6.37-.7,8.74-2.91c2.86-2.67,3.12-6.76,2.95-10.42-.2-4.17-.94-8.33-2.19-12.31-.49-1.54-2.09-2.54-3.69-2.1-1.52,.42-2.59,2.14-2.1,3.69h0Z"/><path class="cls-1" d="M161.98,176.78l-.31,11.27c-.1,3.46-.82,7.52,1.6,10.37,1.97,2.33,5.18,3.07,8.05,3.55,3.56,.6,7.15,.82,10.74,1.18,3.33,.33,6.6,.92,9.74,2.11,2.84,1.08,5.51,2.68,7.97,4.44,4.44,3.18,8.23,7.36,11.1,12,3.21,5.18,5.43,11.16,6.13,17.11,.19,1.61,1.24,3,3,3,1.47,0,3.19-1.38,3-3-1.4-11.78-6.99-22.9-15.87-30.83-4.79-4.28-10.5-7.8-16.74-9.47-6.68-1.78-13.77-1.1-20.42-2.94-.68-.19-.99-.28-1.54-.59,.07,.04-.72-.52-.52-.34-.09-.08-.2-.16-.28-.41-.17-.5-.09-1.21-.07-1.77,.02-1.06,.06-2.12,.09-3.18l.35-12.49c.11-3.86-5.89-3.86-6,0h0Z"/><path class="cls-1" d="M149.32,92.91c-14.15,9.35-25.07,22.93-31.4,38.64-1.73,4.3-3.08,8.74-4.03,13.28l5.48-.72c-6.49-8.46-12.75-17.56-14.54-28.3-.84-5.01-.38-10.12,1.38-14.88,1.67-4.51,4.51-8.6,7.7-12.16,4.19-4.67,9.06-8.65,13.9-12.6,1.26-1.03,1.06-3.18,0-4.24-1.24-1.24-2.98-1.03-4.24,0-8.67,7.08-17.67,14.62-22.22,25.14-2.3,5.33-3.31,11.06-2.76,16.86s2.38,11.64,5.03,17c2.86,5.8,6.65,11.08,10.58,16.2,.75,.98,1.68,1.63,2.99,1.43,1.11-.17,2.25-.98,2.49-2.15,3.21-15.3,11.09-29.38,22.42-40.17,3.18-3.02,6.6-5.75,10.25-8.17,1.35-.89,1.93-2.65,1.08-4.1-.78-1.34-2.75-1.97-4.1-1.08h0Z"/><path class="cls-1" d="M166.18,76.18c7.49,7.76,18.75,11.94,24.18,21.63s4.2,21.34-.42,30.88c-2.82,5.82-6.7,10.99-11.14,15.67-2.66,2.8,1.58,7.05,4.24,4.24,8.68-9.15,15.64-20.43,16.72-33.24,.51-6.05-.43-12.19-2.84-17.77s-6.34-9.85-10.99-13.5c-5.17-4.05-10.92-7.4-15.5-12.16-2.69-2.78-6.93,1.46-4.24,4.24h0Z"/></g></svg>