<?xml version="1.0" encoding="UTF-8"?><svg id="Layer_1" xmlns="http://www.w3.org/2000/svg" xmlns:xlink="http://www.w3.org/1999/xlink" viewBox="0 0 512 407"><defs><style>.cls-1,.cls-2{fill:none;}.cls-3{clip-path:url(#clippath);}.cls-4{fill:#f2f2ed;}.cls-5,.cls-6{fill:#fbfbf6;}.cls-7{fill:#496259;stroke:#3e544b;}.cls-7,.cls-2{stroke-miterlimit:10;stroke-width:2px;}.cls-2{stroke:#fbfbf6;}.cls-6,.cls-8{opacity:.6;}.cls-8{fill:#fefefd;}.cls-9{fill:#d9d9d9;opacity:.3;}</style><clipPath id="clippath"><rect class="cls-1" x="18" y="30" width="473" height="291" rx="4.77" ry="4.77" transform="translate(-8.84 13.56) rotate(-3)"/></clipPath></defs><rect class="cls-7" x="16.86" y="30.04" width="473" height="291" rx="4.77" ry="4.77" transform="translate(-8.84 13.5) rotate(-3)"/><g class="cls-3"><g><path class="cls-6" d="M504.08,163.89c.07,.02,.26,.06,.46-.03,.21-.09,.41-.33,.39-.57-.01-.15-.12-.26-.26-.4-.21-.21-.42-.32-.44-.32-.43-.21-1.5-1.17-2.29-1.88-1.74-1.56-5.4-4.99-7.2-6.65-1.55-1.43-2.73-2.48-3.18-2.89-1.38-1.23-3.15-2.82-5.11-4.44-3.5-2.9-3.56-2.58-7.75-5.99-1.8-1.47-2.51-2.11-4.33-3.49-1.17-.89-1.31-.94-3.81-2.79-2.23-1.65-2.3-1.73-3.92-2.91-1.29-.94-1.64-1.18-2.52-1.8,0,0-.6-.42-1.28-.92-1.49-1.08-2.81-2.39-4.3-3.58-1.32-1.05-.93-.53-4.29-2.84-1.67-1.15-1.93-1.39-3.73-2.61-1.29-.87-1.24-.81-3-1.98-2.35-1.57-2.39-1.66-3.57-2.39-1.68-1.05-2.76-1.58-3.26-1.82-.71-.34-.45-.18-1.98-.88,0,0-3.47-1.57-4.8-2.5-.04-.03-.2-.14-.42-.28-.47-.29-.96-.47-4.89-2.68-1.3-.73-2.81-1.59-4.07-2.31-2.55-1.45-2.61-1.49-3.18-1.8-1.97-1.04-2.32-1.09-4.34-2.13-2.35-1.22-2.02-1.24-3.4-1.88-2.33-1.09-2.83-.83-5.25-1.87-1.16-.5-.95-.52-4.03-2.16-1.57-.83-3.03-1.61-4.94-2.52-1.68-.8-3.08-1.39-5.78-2.54-1.55-.66-1.36-.56-2.26-.95-3.33-1.45-3.28-1.64-5.36-2.46-1.73-.68-3.65-1.29-4.27-1.48-.63-.2-1.13-.35-1.13-.35-.43-.13-1.01-.31-1.81-.55-.83-.26-1.09-.33-1.49-.48-1.15-.43-1.21-.58-2.26-.98-.42-.16-.28-.08-2.21-.7-.94-.3-1.41-.45-1.53-.5-.66-.29-1.34-.52-2-.81-.13-.06-.45-.2-.71-.06-.11,.05-.24,.18-.25,.32-.01,.25,.37,.46,.51,.54,1.4,.76,15.28,5.44,18.69,7.49,.19,.12,1.02,.62,2.19,1.25,.76,.41,1.77,.92,3.02,1.47,2.69,1.19,3.75,1.37,5.55,2.11,2.41,.99,3.85,2.04,5.35,3.02,1.65,1.07,2.53,1.51,13.27,6.63,12.37,5.91,12.23,5.82,13.18,6.32,5.76,2.97,9.99,5.51,12.78,7.19,6.21,3.74,11.5,7.29,14.59,9.56,1.63,1.2,3.53,2.63,3.53,2.63,2.17,1.64,3.75,2.88,4.38,3.38,3.92,3.07,9.14,7.16,14.67,11.32,3.72,2.8,4.23,3.1,5.53,4.31,1.48,1.38,2.69,2.73,4.92,4.35,.42,.3,.91,.64,1.69,1.25,.73,.56,1.87,1.48,3.2,2.71,1.33,1.23,2.48,2.29,3.81,3.88,.54,.64,1.43,1.77,2.66,2.65,0,0,.67,.48,2.24,.82h0Z"/><path class="cls-6" d="M290.34,41.15l.08-.12c3.26,1.89,6.57,3.67,10,5.23,5.11,2.31,10.41,4.29,15.82,5.81,1.82,.47,3.65,.91,5.52,1.08,1.87,.15,3.81,.11,5.67,.46,11.31,1.84,21.85,7.34,30.39,14.9,4.32,3.7,8.33,7.81,11.8,12.31l-.11,.1c-2.66-2.68-5.39-5.28-8.25-7.73-9.85-8.52-21.01-16.25-33.92-19.09-1.85-.42-3.72-.36-5.61-.48-3.8-.31-7.54-1.04-11.21-2.08-7.27-2.18-14.2-5.71-20.17-10.39h0Z"/><path class="cls-6" d="M390.19,88.89l-.14-.02c.2-3.51,.29-7.01,.09-10.48-.37-6.05-1.49-12.12-4.13-17.61-3.78-6.94-8.37-13.42-12.1-20.41-1.7-3.11-3.26-6.34-4.32-9.73-2.14-6.8-2.77-14.01-2.13-21.02h.14l.07,1.32c.15,3.05,.45,6.1,.93,9.12,.55,3.44,1.35,6.82,2.45,10.1,2.1,6.59,5.77,12.63,8.88,18.93,1.6,3.13,3.33,6.18,5.22,9.14,1.91,2.96,3.6,6.14,4.62,9.57,2.01,6.81,1.85,14.18,.42,21.08h0Z"/><path class="cls-6" d="M368.35,80.94l-.06,.13c-3.51-1.19-6.95-2.59-10.35-4.07-1.26-.55-3.82-1.72-5.06-2.31-5.06-2.29-9.71-5.4-14.7-7.81-1.67-.77-3.4-1.41-5.19-1.82-2.71-.67-5.46-.71-8.23-.86-2.85-.25-5.71-1.2-8.04-2.88-1.53-1.12-2.87-2.34-4.36-3.47-2.9-2.24-5.91-4.32-9.05-6.21-1.59-.96-3.2-1.93-4.7-3.04-3.01-2.22-5.77-4.74-8.28-7.47l.1-.1c2.82,2.36,5.75,4.63,8.83,6.63,3.1,1.98,6.49,3.57,9.54,5.68,2.32,1.56,4.54,3.29,6.64,5.13,1.37,1.2,2.7,2.36,4.34,3.13,1.61,.76,3.33,1.34,5.1,1.61,2.74,.33,5.56,.61,8.24,1.36,5.21,1.42,10.42,4.32,15.35,6.52,6.54,3.18,13.39,6.52,19.88,9.82h0Z"/><path class="cls-6" d="M389.72,88.85l-.1,.1c-2.68-2.31-4.92-5.15-6.64-8.29-.87-1.56-1.5-3.28-2.01-4.99-1.54-5.08-2.28-10.33-3.35-15.51-.35-1.72-.71-3.45-1.08-5.17-.19-.85-.36-1.73-.69-2.48-.36-.76-.88-1.49-1.36-2.19-1-1.42-2.15-2.77-3.12-4.29-1.5-2.27-2.4-4.97-2.67-7.68-.16-1.37-.02-2.57-.27-3.89-.86-4.74-2.08-9.47-2.41-14.33-.28-3.56,.24-7.17,1.48-10.51l.14,.04c-.76,3.44-.97,6.94-.48,10.36,.62,5.25,2.38,10.32,2.93,15.62-.14,3.46,.51,6.8,2.28,9.8,1.26,2.27,3,4.41,4.05,6.84,.73,2.56,.98,5.21,1.65,7.79,.78,3.43,1.82,6.8,2.74,10.19,.96,3.38,1.65,6.83,3.16,9.9,1.5,3.12,3.47,6.02,5.74,8.7h0Z"/><path class="cls-6" d="M389.34,88.98l-.03,.14c-3.8-.37-7.59-.76-11.38-.94-7.51-.22-15.3-.38-22.3,2.75-1.77,.74-3.58,1.4-5.43,1.92-1.86,.52-3.74,.95-5.65,1.19-1.93,.25-3.87,.24-5.74,.35-1.88,.11-3.74,.35-5.6,.68-1.85,.33-3.67,.8-5.49,1.33-5.31,1.5-11.15,3.26-16.33,5.11-3.6,1.23-7.18,2.56-10.76,3.89l-.06-.13c8.5-4.39,17.47-7.92,26.75-10.32,3.72-.99,7.58-1.68,11.45-1.71,1.94-.03,3.83,.13,5.7,.01,3.77-.24,7.51-1.18,10.96-2.75,1.74-.81,3.51-1.6,5.36-2.14,4.15-1.27,8.56-1.7,12.89-1.55,5.27,.14,10.54,.92,15.65,2.17h0Z"/><path class="cls-6" d="M389.68,90.22l.08,.12c-4.84,3.92-10.72,6.68-16.86,7.9-5.21,.98-10.55,.37-15.8,.55-10.95,.31-23.3,.85-34.19,1.93-7.51,.87-14.93,2.54-22.23,4.77l-.05-.13c8.76-3.86,18.26-6.17,27.83-6.67,3.82-.18,7.63-.32,11.46-.34,5.72,.02,11.44,.24,17.16-.02,4.69-.26,9.53-.51,14.18-1.1,6.55-1.05,12.71-3.57,18.4-6.99h0Z"/><path class="cls-6" d="M428.31,107.6l-.14-.05c.89-3.42,1.5-6.89,1.59-10.37,.07-2.59-.08-5.21-.62-7.73-.6-2.54-1.71-4.91-2.64-7.38l-1.91-4.96c-1.33-3.44-4.56-11.5-5.74-14.87-.6-1.66-1.17-3.33-1.81-4.95-1.26-3.26-3.02-6.24-4.9-9.22-3.79-6.03-6.2-12.99-7.06-20.05l.14-.03c1.32,5.12,3.14,10.07,5.58,14.74,1.6,3.16,3.75,5.96,5.36,9.13,2.5,4.74,3.74,10.03,5.3,15.09,1.54,5.07,3.41,10.04,5.77,14.79,.77,1.59,1.6,3.15,2.3,4.81,2.61,6.38,1.46,14.87-1.22,21.04h0Z"/><path class="cls-6" d="M428.3,107.53l-.11,.1c-1.25-1.25-2.46-2.54-3.58-3.92-3.39-4.11-6.29-8.75-7.87-13.87-1.05-3.42-1.12-6.98-2.08-10.41-.84-3.45-2.4-6.59-3.65-9.91-.6-1.69-1.06-3.42-1.34-5.2-.26-1.8-.29-3.56-.43-5.3-.98-10.43-3.04-20.93-4.12-31.37l.14-.03c2.07,8.58,3.89,17.23,4.92,26,.19,1.77,.33,3.54,.41,5.31,.1,3.54,.16,6.95,1.16,10.35,1,3.35,2.41,6.64,3.35,10.03,1.03,3.35,1.57,6.88,2.77,10.16,2.32,6.6,6.24,12.46,10.42,18.07h0Z"/><path class="cls-6" d="M428.05,107.86v.14c-6,.12-11.94,.82-17.65,2.63-4.76,1.64-9.84,2.37-14.85,2.73-4.01,.29-8.03,.52-12.06,.5-2.99-.08-5.97-.02-8.91,.52-3.92,.66-7.59,2.13-11.22,3.75-9.19,4.09-18.85,7.16-28.69,9.16l-.04-.14c7.64-2.48,15.19-5.11,22.59-8.12,3.71-1.46,7.34-3.16,11.22-4.44,1.93-.64,3.94-1.1,5.96-1.36,4.03-.59,8.08,.07,12.09,.11,3,0,6.01-.19,8.98-.58,3.95-.56,7.85-1.42,11.67-2.51,1.92-.56,3.84-1.21,5.81-1.64,4.94-1.06,10.08-1.36,15.08-.76h0Z"/><path class="cls-6" d="M428,107.87l.08,.12c-3.28,2.44-6.79,4.57-10.42,6.46-7.23,3.9-15.14,6.24-23.08,8.18-5.97,1.37-12.14,2.59-18.31,1.84-1.04-.16-2.02-.39-3-.54-4.98-.74-10.04-.53-15.07-.23-8.07,.51-16.09,1.84-23.98,3.87l-.04-.14c11.46-4.3,23.99-6.28,36.24-5.21,2.03,.16,4.11,.65,6.07,1.1,3.91,.75,8.07,.57,12.03,.07,6.05-.8,11.8-3.05,17.47-5.22,7.6-2.88,14.92-6.34,22.03-10.31h0Z"/><path class="cls-6" d="M460.66,128.22v.15c-2.14,.06-4.26,.08-6.37,.24-2.11,.15-4.22,.34-6.31,.65-6.24,.93-12.41,2.61-18.15,5.24-3.79,1.88-7.57,3.96-11.48,5.61-3.9,1.73-7.79,3.53-11.87,4.84-4.1,1.33-8.34,2.18-12.64,2.55-4.81,.39-9.55-.47-14.35-.01-5.81,.42-11.54,1.48-17.17,3.04l-.05-.14c5.96-2.37,12.3-3.87,18.71-4.39,4.27-.38,8.5,.28,12.75,0,6.32-.37,12.48-1.96,18.47-4.05,3.98-1.45,7.98-2.97,11.73-4.96,1.89-.99,3.66-2.16,5.53-3.2,1.88-1.04,3.84-1.95,5.84-2.73,8.03-3.03,16.87-3.78,25.36-2.83h0Z"/><path class="cls-6" d="M461.71,129.22l.13,.07c-1.8,4.12-4.57,7.84-8.06,10.78-6.2,5.01-14.01,7.64-21.86,8.5-10.01,1.11-19.92,2.99-29.9,4.27-13.37,1.41-27.06,.4-40.19-2.34,8.66,.53,17.74,1.55,26.72,1.41,3.34,.01,6.68-.04,10.02-.15,2.18-.08,7.72-.77,9.96-.99,6.46-.66,13.61-1.31,20-2.25,4.42-.64,8.8-1.56,12.91-3.19,8.83-3.28,15.46-7.85,20.28-16.11h0Z"/><path class="cls-6" d="M461.33,127.96l-.12,.08c-3.8-4.73-6.74-10.19-8.74-15.92-2.13-5.72-2.42-11.91-3.46-17.85-.33-1.98-.78-3.94-1.25-5.9-1.39-5.88-2.86-11.74-4.08-17.66-2.03-9.2-3.92-20.41-7.15-29.2-.67-1.89-1.42-3.75-2.1-5.65l.13-.06c1.86,3.59,3.58,7.25,4.91,11.08,3.31,9.57,4.76,19.6,6.64,29.5,.61,3.49,1.43,8.46,2.13,11.89,.61,2.85,1.26,6,1.83,8.88,.6,2.84,1.23,6.04,1.95,8.82,1.9,7.76,5.16,15.15,9.31,21.98h0Z"/><path class="cls-6" d="M462.62,128.91l-.14-.02c.43-6.08,.33-12.13-.53-18.14-.94-5.93-2.51-11.93-4.06-17.75-2.18-7.68-4.81-15.65-7.6-23.13-4.46-11.33-9.49-22.37-15.3-33.11l.12-.08c6.97,10.06,12.36,21.18,16.45,32.7,2.78,7.7,4.32,15.7,6.78,23.48,1.16,3.79,2.59,7.86,3.65,11.67,2.13,7.9,2.22,16.38,.64,24.37h0Z"/></g><g><path class="cls-8" d="M-18.48,174.49c-.08-.02-.28-.07-.5,.02-.23,.09-.46,.34-.44,.6,0,.17,.11,.28,.26,.44,.22,.23,.44,.36,.46,.37,.45,.25,1.57,1.32,2.4,2.12,1.82,1.75,5.65,5.6,7.53,7.47,1.62,1.6,2.85,2.79,3.32,3.24,1.44,1.39,3.3,3.16,5.35,5,3.68,3.27,3.75,2.93,8.15,6.78,1.89,1.65,2.63,2.38,4.55,3.94,1.23,1,1.38,1.07,4.01,3.16,2.35,1.86,2.42,1.96,4.13,3.3,1.36,1.07,1.73,1.33,2.65,2.04,0,0,.63,.48,1.35,1.04,1.56,1.22,2.95,2.7,4.51,4.03,1.39,1.19,.99,.61,4.53,3.24,1.77,1.31,2.04,1.58,3.94,2.97,1.36,.99,1.31,.92,3.16,2.26,2.48,1.79,2.52,1.89,3.77,2.72,1.78,1.19,2.92,1.81,3.45,2.1,.75,.4,.48,.21,2.11,1.02,0,0,3.7,1.82,5.1,2.89,.05,.03,.21,.16,.44,.32,.5,.33,1.02,.55,5.19,3.09,1.38,.84,2.98,1.83,4.31,2.65,2.7,1.67,2.76,1.71,3.37,2.06,2.09,1.2,2.47,1.26,4.61,2.47,2.5,1.41,2.13,1.41,3.6,2.16,2.48,1.27,3.03,1,5.61,2.22,1.24,.59,1.01,.6,4.27,2.49,1.66,.96,3.21,1.86,5.25,2.92,1.78,.93,3.27,1.62,6.15,2.97,1.65,.78,1.45,.66,2.41,1.12,3.55,1.69,3.49,1.9,5.7,2.87,1.84,.8,3.89,1.53,4.56,1.76,.67,.24,1.2,.42,1.2,.42,.46,.16,1.08,.37,1.93,.67,.89,.31,1.16,.4,1.59,.58,1.23,.51,1.29,.67,2.4,1.14,.44,.19,.29,.1,2.36,.84,1.01,.36,1.51,.54,1.63,.6,.71,.34,1.43,.62,2.13,.95,.14,.06,.47,.23,.77,.1,.13-.05,.27-.18,.28-.33,.02-.27-.39-.52-.53-.6-1.49-.88-16.31-6.46-19.92-8.81-.2-.13-1.07-.71-2.32-1.43-.81-.47-1.88-1.06-3.21-1.71-2.86-1.39-4-1.63-5.92-2.5-2.57-1.17-4.08-2.35-5.66-3.47-1.74-1.22-2.68-1.73-14.09-7.68-13.15-6.86-12.99-6.76-14.01-7.33-6.11-3.43-10.59-6.34-13.54-8.26-6.57-4.28-12.15-8.32-15.41-10.89-1.72-1.35-3.71-2.98-3.71-2.98-2.28-1.86-3.94-3.26-4.61-3.82-4.12-3.47-9.6-8.09-15.43-12.79-3.92-3.17-4.45-3.51-5.81-4.87-1.55-1.55-2.8-3.05-5.15-4.89-.44-.35-.96-.73-1.78-1.41-.76-.63-1.96-1.67-3.35-3.05-1.39-1.38-2.59-2.57-3.97-4.34-.56-.71-1.48-1.96-2.77-2.97,0,0-.7-.54-2.39-.98h0Z"/><path class="cls-8" d="M207.87,315.34l-.09,.13c-3.45-2.17-6.96-4.22-10.61-6.04-5.44-2.7-11.09-5.04-16.88-6.88-1.95-.58-3.91-1.12-5.92-1.38-2.02-.23-4.11-.26-6.11-.71-12.16-2.42-23.34-8.77-32.28-17.27-4.53-4.16-8.7-8.76-12.28-13.76l.12-.1c2.78,3,5.63,5.91,8.62,8.67,10.32,9.59,22.09,18.37,35.94,21.94,1.99,.52,4.01,.53,6.05,.73,4.09,.48,8.11,1.41,12.04,2.67,7.78,2.64,15.13,6.71,21.4,12.01h0Z"/><path class="cls-8" d="M101.75,259.92l.16,.03c-.35,3.79-.58,7.56-.5,11.32,.17,6.55,1.15,13.16,3.79,19.19,3.83,7.65,8.54,14.82,12.29,22.52,1.72,3.42,3.28,6.97,4.3,10.68,2.06,7.44,2.46,15.25,1.49,22.81h-.16l-.03-1.44c-.04-3.3-.25-6.61-.66-9.89-.47-3.73-1.2-7.43-2.26-11.02-2.02-7.2-5.76-13.87-8.87-20.8-1.61-3.44-3.36-6.81-5.29-10.08-1.95-3.27-3.65-6.77-4.63-10.52-1.92-7.44-1.45-15.4,.36-22.8h0Z"/><path class="cls-8" d="M125.06,269.35l.07-.14c3.75,1.43,7.41,3.06,11.03,4.79,1.34,.64,4.07,2.01,5.38,2.69,5.38,2.67,10.29,6.2,15.59,9.01,1.78,.89,3.62,1.66,5.54,2.16,2.9,.82,5.87,.97,8.87,1.24,3.07,.38,6.13,1.51,8.58,3.42,1.61,1.27,3.02,2.64,4.58,3.91,3.05,2.53,6.22,4.9,9.55,7.06,1.68,1.09,3.39,2.21,4.96,3.46,3.17,2.52,6.05,5.35,8.66,8.39l-.11,.11c-2.96-2.66-6.04-5.23-9.29-7.51-3.27-2.26-6.88-4.11-10.09-6.51-2.44-1.77-4.78-3.73-6.98-5.8-1.44-1.35-2.83-2.66-4.57-3.55-1.71-.88-3.55-1.58-5.45-1.94-2.95-.46-5.99-.88-8.85-1.79-5.58-1.73-11.1-5.07-16.35-7.64-6.95-3.69-14.23-7.57-21.11-11.38h0Z"/><path class="cls-8" d="M102.26,259.98l.12-.11c2.81,2.6,5.12,5.76,6.86,9.22,.88,1.72,1.5,3.6,1.99,5.47,1.47,5.55,2.07,11.25,3.02,16.9,.32,1.88,.63,3.75,.97,5.63,.17,.93,.32,1.89,.65,2.71,.36,.83,.89,1.64,1.38,2.42,1.03,1.58,2.21,3.07,3.2,4.76,1.53,2.51,2.4,5.46,2.6,8.41,.12,1.48-.07,2.78,.15,4.21,.75,5.16,1.89,10.32,2.05,15.58,.17,3.86-.54,7.74-2,11.31l-.15-.05c.95-3.69,1.32-7.47,.92-11.18-.47-5.7-2.18-11.24-2.57-16.99,.29-3.73-.29-7.38-2.09-10.68-1.28-2.5-3.07-4.88-4.12-7.55-.69-2.8-.86-5.67-1.49-8.48-.72-3.73-1.71-7.42-2.57-11.12-.91-3.69-1.53-7.44-3.04-10.83-1.5-3.43-3.52-6.63-5.87-9.63h0Z"/><path class="cls-8" d="M102.68,259.85l.03-.15c4.1,.55,8.18,1.11,12.27,1.45,8.11,.52,16.53,.99,24.21-2.12,1.94-.73,3.92-1.37,5.94-1.86,2.03-.49,4.08-.88,6.16-1.07,2.09-.19,4.19-.11,6.22-.16,2.03-.04,4.06-.23,6.08-.52,2.01-.29,4-.72,5.99-1.22,5.8-1.42,12.18-3.1,17.84-4.9,3.94-1.19,7.86-2.49,11.78-3.8l.06,.15c-9.36,4.42-19.19,7.89-29.31,10.14-4.06,.93-8.26,1.53-12.44,1.41-2.1-.05-4.13-.29-6.17-.23-4.09,.11-8.16,.99-11.96,2.55-1.91,.81-3.86,1.6-5.87,2.11-4.54,1.21-9.31,1.51-13.99,1.19-5.69-.35-11.36-1.4-16.83-2.95h0Z"/><path class="cls-8" d="M102.36,258.5l-.09-.13c5.39-4.06,11.85-6.82,18.52-7.89,5.66-.86,11.42,0,17.1,.01,11.84,.09,25.22-.03,37.03-.78,8.15-.65,16.24-2.17,24.21-4.3l.05,.15c-9.62,3.84-19.97,5.97-30.34,6.15-4.14,.05-8.26,.05-12.4-.07-6.18-.24-12.36-.7-18.55-.64-5.07,.1-10.33,.18-15.37,.65-7.12,.89-13.87,3.37-20.16,6.86h0Z"/><path class="cls-8" d="M61.27,238.23l.14,.06c-1.1,3.67-1.88,7.39-2.11,11.15-.17,2.79-.12,5.63,.38,8.38,.55,2.77,1.66,5.38,2.57,8.08l1.88,5.43c1.31,3.77,4.49,12.6,5.63,16.29,.58,1.82,1.13,3.64,1.76,5.42,1.24,3.57,3.02,6.86,4.95,10.15,3.86,6.66,6.2,14.28,6.86,21.94l-.16,.02c-1.23-5.59-3.01-11-5.47-16.15-1.61-3.48-3.82-6.58-5.44-10.07-2.52-5.22-3.66-10.99-5.15-16.52-1.48-5.54-3.3-10.99-5.67-16.2-.78-1.75-1.6-3.47-2.3-5.29-2.58-6.99-1.01-16.13,2.12-22.7h0Z"/><path class="cls-8" d="M61.28,238.31l.12-.1c1.3,1.4,2.56,2.84,3.72,4.37,3.5,4.57,6.47,9.7,7.97,15.3,1.01,3.73,.95,7.59,1.85,11.33,.78,3.76,2.34,7.21,3.57,10.85,.58,1.85,1.02,3.73,1.24,5.68,.21,1.96,.18,3.86,.26,5.75,.66,11.32,2.48,22.74,3.25,34.06l-.15,.03c-1.91-9.35-3.55-18.78-4.33-28.29-.14-1.92-.23-3.84-.24-5.76,.02-3.83,.1-7.52-.86-11.23-.95-3.66-2.35-7.27-3.24-10.97-.98-3.66-1.43-7.49-2.6-11.08-2.26-7.23-6.27-13.71-10.57-19.93h0Z"/><path class="cls-8" d="M61.56,237.96v-.16c6.49,.1,12.94-.43,19.18-2.16,5.21-1.59,10.73-2.19,16.16-2.39,4.35-.16,8.7-.26,13.05-.08,3.23,.2,6.45,.25,9.65-.23,4.27-.56,8.29-2.01,12.27-3.63,10.09-4.07,20.65-7.02,31.36-8.81l.03,.15c-8.35,2.39-16.61,4.94-24.73,7.92-4.07,1.44-8.05,3.14-12.29,4.37-2.12,.62-4.3,1.04-6.5,1.24-4.38,.49-8.73-.39-13.07-.58-3.24-.12-6.5-.03-9.73,.28-4.29,.45-8.54,1.23-12.71,2.26-2.09,.53-4.2,1.16-6.34,1.55-5.38,.96-10.95,1.08-16.33,.25h0Z"/><path class="cls-8" d="M61.61,237.95l-.08-.14c3.64-2.51,7.51-4.68,11.51-6.58,7.96-3.93,16.6-6.17,25.26-7.95,6.5-1.25,13.23-2.34,19.87-1.28,1.11,.21,2.17,.5,3.23,.7,5.35,.99,10.84,.96,16.28,.83,8.74-.25,17.46-1.37,26.07-3.27l.04,.15c-12.55,4.21-26.18,5.87-39.37,4.24-2.19-.25-4.42-.86-6.52-1.42-4.2-.96-8.7-.93-13-.54-6.58,.64-12.87,2.85-19.08,4.97-8.33,2.83-16.37,6.28-24.21,10.3h0Z"/><path class="cls-8" d="M27.09,214.71v-.16c2.32,.02,4.61,.07,6.91-.01,2.29-.08,4.57-.2,6.84-.46,6.78-.76,13.51-2.35,19.82-4.97,4.17-1.89,8.33-3.99,12.63-5.62,4.29-1.72,8.56-3.52,13.01-4.78,4.48-1.28,9.1-2.04,13.76-2.27,5.21-.24,10.31,.87,15.51,.56,6.3-.23,12.53-1.15,18.68-2.63l.05,.15c-6.53,2.33-13.44,3.72-20.39,4.03-4.63,.25-9.18-.62-13.78-.48-6.85,.16-13.57,1.64-20.12,3.67-4.36,1.42-8.74,2.91-12.87,4.91-2.08,1-4.04,2.19-6.1,3.25-2.07,1.06-4.22,1.96-6.42,2.73-8.8,2.97-18.38,3.44-27.52,2.09h0Z"/><path class="cls-8" d="M25.99,213.59l-.14-.08c2.1-4.38,5.24-8.3,9.13-11.35,6.89-5.18,15.44-7.72,23.95-8.35,10.86-.81,21.64-2.47,32.48-3.47,14.51-1.02,29.26,.61,43.35,4.07-9.34-.91-19.12-2.36-28.83-2.54-3.61-.14-7.22-.22-10.83-.22-2.36,0-8.37,.54-10.8,.68-7.01,.46-14.76,.9-21.7,1.67-4.81,.53-9.57,1.35-14.07,2.95-9.67,3.21-17.02,7.9-22.54,16.64h0Z"/><path class="cls-8" d="M26.36,214.96l.13-.09c3.92,5.26,6.89,11.27,8.84,17.55,2.08,6.27,2.16,12.97,3.06,19.42,.28,2.16,.7,4.29,1.12,6.42,1.27,6.41,2.65,12.8,3.74,19.25,1.84,10.02,3.46,22.21,6.61,31.83,.65,2.07,1.4,4.11,2.06,6.19l-.14,.06c-1.87-3.96-3.59-7.98-4.88-12.17-3.21-10.47-4.4-21.37-6.05-32.14-.53-3.79-1.23-9.2-1.85-12.93-.55-3.1-1.13-6.53-1.63-9.67-.54-3.09-1.1-6.58-1.77-9.61-1.76-8.46-5-16.58-9.23-24.12h0Z"/><path class="cls-8" d="M25,213.89l.16,.03c-.7,6.55-.82,13.1-.12,19.63,.79,6.45,2.26,12.99,3.71,19.34,2.07,8.38,4.61,17.1,7.33,25.29,4.39,12.42,9.41,24.54,15.27,36.37l-.14,.08c-7.14-11.14-12.55-23.37-16.53-35.98-2.71-8.43-4.06-17.14-6.43-25.64-1.11-4.14-2.5-8.59-3.5-12.75-2-8.62-1.78-17.79,.25-26.37h0Z"/></g></g><ellipse class="cls-9" cx="240" cy="380.5" rx="192" ry="15.5"/><g><path class="cls-4" d="M386.14,286.73l4.99-.26,.29,5.62-1.44,.08-.24-1.49c-.74,1.06-2.05,1.61-3.67,1.69-3.51,.18-5.6-1.55-5.79-5.12-.22-4.1,2.18-6.08,5.77-6.27,3.01-.16,4.83,1.23,4.9,3.72l-1.85,.22c-.13-2.17-1.51-2.8-3.16-2.72-2.09,.11-3.7,1.44-3.53,4.77,.16,2.96,1.46,4.31,3.84,4.18,1.87-.1,3.22-1.19,3.2-2.98l-.02-.45-3.23,.17-.06-1.17Z"/><path class="cls-4" d="M399.99,280.43l5.62,10.73-2.02,.11-1.53-2.94-5.9,.31-1.2,3.08-1.96,.1,4.41-11.26,2.57-.13Zm-1.25,1.4h-.02l-2.17,5.63,4.95-.26-2.76-5.37Z"/><path class="cls-4" d="M416.14,279.58l-4.31,11.25-2.49,.13-5.52-10.74,2.01-.11,4.72,9.49,3.64-9.92,1.95-.1Z"/><path class="cls-4" d="M425.41,285.04l-5.31,.28,.2,3.88,6.44-.34,.06,1.18-8.4,.44-.58-11,7.94-.42,.06,1.18-5.98,.31,.19,3.58,5.31-.28,.06,1.17Z"/><path class="cls-4" d="M431.1,284.17l5.72-5.68,2.17-.11-4.98,4.89,5.92,6.09-2.23,.12-4.9-4.98-1.6,1.57,.2,3.75-1.96,.1-.58-11,1.96-.1,.28,5.36Z"/><path class="cls-4" d="M440.3,283.86c-.19-3.64,1.99-5.84,5.78-6.04,3.73-.2,5.57,1.75,5.75,5.22,.2,3.75-1.61,5.96-5.54,6.16-3.87,.2-5.81-1.74-6-5.35Zm9.55-.62c-.15-2.77-1.25-4.32-3.8-4.19-2.61,.14-3.88,1.86-3.74,4.64,.15,2.83,1.31,4.45,4.04,4.31,2.65-.14,3.64-1.87,3.49-4.76Z"/><path class="cls-4" d="M459.02,283.6l-.38,.02-2.03,.11,.25,4.75-1.96,.1-.58-11,4.69-.25c3.61-.19,4.8,1.07,4.88,2.69,.07,1.26-.36,2.65-2.93,3.28l3.63,4.77-2.13,.11-3.44-4.58Zm-.56-1.13c2.43-.13,3.49-.66,3.4-2.27-.07-1.3-1.07-1.79-3.21-1.68l-2.31,.12,.21,3.92,1.91-.1Z"/><path class="cls-4" d="M468.87,278l-4.17,.22-.06-1.18,10.29-.54,.06,1.18-4.17,.22,.51,9.81-1.96,.1-.51-9.81Z"/></g><g><path class="cls-5" d="M314.52,197.43c-4.39,4.86-9.89,8.4-17.28,8.78-13.73,.72-27.19-9.01-28.43-32.68-1.21-23.18,11.37-35.75,26.08-36.52,5.07-.27,10.22,.84,15.05,3.05l.77,14.63-1.12,.06-6.79-15.3c-2.66-.75-5.21-.91-7.75-.78-12.99,.68-20.05,12.97-18.95,33.98,1.14,21.7,10.22,32.16,21.56,31.56,7.39-.39,12.53-3.71,16.21-7.74l.65,.95Z"/><g><path class="cls-5" d="M212.01,235.85l.21,3.99-11.35,.59-.03-.54,7.57-16.14-5.38,.28-1.85,3.58-.49,.03-.21-3.92,10.76-.56,.02,.39-7.63,16.29,6.03-.32,1.85-3.65,.49-.03Z"/><path class="cls-5" d="M227.91,230.62c.3,5.72-1.94,8.82-6.46,9.06-4.56,.24-7.11-2.59-7.41-8.28-.3-5.72,1.97-8.83,6.56-9.07,4.49-.24,7.01,2.6,7.31,8.29Zm-10.79,.54c.29,5.47,1.75,8.21,4.3,8.08,2.53-.13,3.69-2.94,3.41-8.41-.28-5.42-1.74-8.19-4.3-8.05-2.52,.13-3.69,2.99-3.41,8.38Z"/><path class="cls-5" d="M244.4,221.43l.02,.44-2.07,.11,.85,16.24-2.95,.15-7.98-13.69,.71,13.63,2.39-.12,.02,.44-5.12,.27-.02-.44,2.07-.11-.77-14.66-.65-1.1-1.48,.08-.02-.44,4.2-.22,8.87,14.95-.78-14.93-2.39,.12-.02-.44,5.12-.27Z"/><path class="cls-5" d="M257.95,233.37l.49-.03,.21,4.07-11.9,.62-.02-.44,2.07-.11-.83-15.79-2.07,.11-.02-.44,11.28-.59,.2,3.72-.49,.03-2.01-3.18-4.07,.21,.39,7.54,3.54-.19,.99-2.52,.49-.03,.28,5.4-.49,.03-1.25-2.43-3.54,.19,.41,7.81,4.75-.25,1.58-3.71Z"/><path class="cls-5" d="M272.87,235.01c-1.15,1.29-2.72,2.12-4.59,2.22-4.36,.23-7.55-2.35-7.86-8.16-.31-5.91,2.69-8.96,7.15-9.2,1.38-.07,2.8,.12,3.91,.56l.2,3.87-.49,.03-2.31-3.98c-.36-.05-.76-.06-1.22-.04-2.72,.14-4.41,3.15-4.12,8.49,.3,5.82,2.26,8.06,4.92,7.92,1.71-.09,3.08-.85,4.04-1.89l.37,.18Z"/><path class="cls-5" d="M285.24,231.44l.49-.03,.24,4.56-11.77,.62-.02-.44,2.07-.11-.83-15.79-2.07,.11-.02-.44,7.02-.37,.02,.44-2.13,.11,.83,15.79,4.39-.23,1.79-4.22Z"/><path class="cls-5" d="M294.31,235.09l.02,.44-6.99,.37-.02-.44,2.07-.11-.83-15.79-2.07,.11-.02-.44,6.99-.37,.02,.44-2.1,.11,.83,15.79,2.1-.11Z"/><path class="cls-5" d="M310.05,217.99l.02,.44-2.07,.11,.85,16.24-2.95,.15-7.98-13.69,.71,13.63,2.39-.13,.02,.44-5.12,.27-.02-.44,2.07-.11-.77-14.66-.65-1.1-1.48,.08-.02-.44,4.2-.22,8.87,14.95-.78-14.93-2.39,.12-.02-.44,5.12-.27Z"/><path class="cls-5" d="M319.37,233.78l.02,.44-6.99,.37-.02-.44,2.07-.11-.83-15.79-2.07,.11-.02-.44,6.99-.37,.02,.44-2.1,.11,.83,15.79,2.1-.11Z"/><path class="cls-5" d="M333.21,231.84c-1.15,1.29-2.72,2.12-4.59,2.22-4.36,.23-7.55-2.35-7.86-8.16-.31-5.91,2.69-8.96,7.15-9.2,1.38-.07,2.8,.13,3.91,.56l.2,3.87-.49,.03-2.31-3.98c-.37-.05-.76-.06-1.22-.04-2.72,.14-4.41,3.15-4.12,8.49,.3,5.82,2.26,8.06,4.92,7.92,1.71-.09,3.08-.85,4.04-1.89l.37,.18Z"/></g><path class="cls-5" d="M265.63,162.62l.83,15.91-48.07,2.52-.11-2.16,32.29-64.42-22.79,1.19-7.89,14.3-2.08,.11-.82-15.62,45.57-2.39,.08,1.57-32.54,65.03,25.57-1.34,7.87-14.59,2.08-.11Z"/><line class="cls-2" x1="199.4" y1="100.47" x2="205.43" y2="215.47"/><line class="cls-2" x1="320.4" y1="94.13" x2="326.43" y2="209.13"/><line class="cls-2" x1="198.9" y1="100.5" x2="320.9" y2="94.1"/><line class="cls-2" x1="328.1" y1="241.13" x2="328.45" y2="247.63"/><line class="cls-2" x1="207.1" y1="247.47" x2="207.44" y2="253.97"/><line class="cls-2" x1="206.94" y1="254" x2="328.95" y2="247.61"/></g></svg>