<?xml version="1.0" encoding="UTF-8"?><svg id="Layer_1" xmlns="http://www.w3.org/2000/svg" viewBox="0 0 300 300"><defs><style>.cls-1{fill:#f6f6f5;}.cls-2{fill:#89836a;}</style></defs><circle class="cls-2" cx="150" cy="150" r="149.5"/><path class="cls-1" d="M91.15,164.16c-4.95,.85-9.13,5.11-9.75,10.11s2.79,9.34,7.32,11.15,9.7,.48,13.26-2.85c4-3.73,5.74-9.46,4.82-14.8s-4.78-9.5-9.46-11.56c-5.26-2.32-11.52-2.33-16.89-.33s-8.92,6.15-10.4,11.66c-1.49,5.54-1.19,11.69,.39,17.18s4.38,10.81,9.61,13.61,11.31,3.96,17.14,3.61c10.87-.66,21.32-6.79,26.78-16.31,3.21-5.6,2.92-12.31,3.16-18.58s.36-13.07,.36-19.61c0-12.92-.4-25.83-.83-38.74-.18-5.58-.08-12.33-5.45-15.67-4.81-2.99-10.48,.26-12.52,5-1.24,2.86-1.39,5.98-1.41,9.06s-.03,6.24-.04,9.36l-.09,19.81-.04,9.41c-.01,2.9,4.49,2.9,4.5,0l.16-33.93c.01-2.67-.08-5.37,.14-8.03,.17-2.11,.71-4.34,2.24-5.89,1.21-1.22,2.87-1.91,4.5-1.08,1.79,.91,2.63,2.94,3.03,4.79,.54,2.49,.42,5.14,.51,7.67,.09,2.81,.18,5.63,.27,8.44,.17,5.63,.32,11.26,.42,16.89,.2,11.34,.18,22.68-.3,34.01-.23,5.27,.01,10.74-2.83,15.39-2.29,3.74-5.53,6.91-9.25,9.22-8.1,5.03-18.73,5.87-27.4,1.69-2.12-1.02-3.94-2.36-5.24-4.34s-2.26-4.25-2.95-6.55c-1.37-4.55-1.79-9.59-.75-14.26,.97-4.37,3.35-7.98,7.69-9.54s9.51-1.83,13.74,.18c3.78,1.79,6.77,5.34,6.97,9.63,.19,3.97-1.58,8.18-4.98,10.4-2.94,1.92-6.69,1.88-9.45-.39s-2.96-6.11-.58-8.82c1.28-1.45,2.91-2.33,4.81-2.65,1.2-.2,1.87-1.68,1.57-2.77-.35-1.27-1.57-1.78-2.77-1.57h0Z"/><path class="cls-1" d="M111.31,103.29c.01-3.62,.24-7.24,.41-10.86s.6-7.56-.75-11.02c-2.46-6.27-10.65-9.73-16.82-6.74-6.48,3.14-5.53,12.17-5.6,18.1l-.29,24.83-.33,28.06c-.03,2.9,4.47,2.9,4.5,0,.18-15.07,.36-30.13,.54-45.2l.14-11.42c.03-2.58-.09-5.36,.89-7.8,2.04-5.11,9.78-3.35,12.19,.55,1.82,2.94,1.22,6.89,1.07,10.18-.18,3.77-.42,7.53-.43,11.31,0,2.9,4.49,2.9,4.5,0h0Z"/><path class="cls-1" d="M92.89,97.8c.41-4.64-2.85-8.85-6.96-10.67s-10.44-1.66-12.66,3.02c-1.19,2.51-1.28,5.58-1.33,8.31-.06,3.01,.03,6.02,.07,9.03l.2,18.22,.23,20.46c.03,2.89,4.53,2.9,4.5,0l-.35-31.69c-.06-5.18-.21-10.36-.15-15.54,.02-2.1-.14-4.98,.91-6.88,.78-1.41,2.76-1.64,4.2-1.52,3.68,.32,7.19,3.42,6.84,7.28-.11,1.21,1.11,2.25,2.25,2.25,1.31,0,2.14-1.03,2.25-2.25h0Z"/><path class="cls-1" d="M75.63,112.48c-2.26-4.33-5.51-8.6-10.7-9.24-4.9-.6-8.75,3-10.25,7.4-.85,2.47-.93,5.19-.93,7.78,0,2.79,.03,5.58,.05,8.37l.11,17.17,.22,34.08c.02,2.76,.05,5.53,.14,8.29,.08,2.53-.02,5.08,.22,7.6s.76,4.9,1.84,7.17,2.73,4.17,4.26,6.04c3.09,3.79,6.49,6.91,10.86,9.14,4.09,2.09,8.27,4.14,12.76,5.2s9,2.26,13.56,2.51,8.8-.37,12.97-1.63c8.65-2.6,16.52-7.91,22.27-14.86,3.19-3.85,5.79-8.16,7.18-12.99,1.53-5.27,1.81-10.9,1.88-16.36s-.24-11.33-.33-16.99,.11-11.16,.65-16.72c.26-2.64,.78-5.36,.11-7.99-.59-2.3-2.23-4.38-4.51-5.18-4.41-1.54-9.22,2.82-11.52,6.13-1.24,1.77-2.09,3.84-2.53,5.96-.58,2.83,3.76,4.04,4.34,1.2,.74-3.61,2.92-6.73,6.18-8.49,1.52-.82,2.82-.73,3.54,1.03,.81,2,.17,4.54-.04,6.61-1.05,10.19-.54,20.3-.41,30.51,.07,5,.05,10.1-.79,15.04-.77,4.54-2.39,8.66-4.98,12.46-4.46,6.53-11,11.79-18.27,14.88-3.54,1.5-7.37,2.53-11.21,2.83-4.04,.32-7.74-.3-11.66-1.17-4.05-.89-8-1.62-11.76-3.4-3.52-1.67-7.43-3.15-10.35-5.79-1.73-1.56-3.29-3.3-4.76-5.11-1.37-1.68-2.87-3.47-3.72-5.49-1.66-3.98-1.18-8.6-1.31-12.8-.32-10.16-.2-20.35-.26-30.52l-.2-31.1c-.02-2.48-.09-4.98-.01-7.46,.07-2.05,.29-4.2,1.32-6.02,.78-1.38,2.03-2.67,3.68-2.89,1.79-.24,3.61,.69,4.89,1.88,1.56,1.46,2.61,3.32,3.58,5.19,1.34,2.57,5.23,.29,3.89-2.27h0Z"/><path class="cls-1" d="M206.72,170.72c3.47,.59,6.9,3.67,6.52,7.46-.33,3.3-3.71,5.63-6.85,5.8-3.85,.2-7.01-2.53-8.66-5.8-1.94-3.83-1.61-8.63,1.1-12.01s7.26-5.07,11.68-5.02,9.24,1.32,11.92,4.91c2.68,3.59,3.21,8.47,3.02,12.81-.22,4.85-1.59,9.97-4.33,14.02s-7.84,5.61-12.33,6.42c-4.77,.86-9.77,.42-14.35-1.14-8.24-2.8-16.68-10.19-17.47-19.29-.98-11.16-.93-22.49-.85-33.68,.08-11.34,.43-22.68,.8-34.02,.12-3.71-.54-10.61,3.84-12.37,1.61-.65,3.2,.21,4.31,1.37,1.51,1.57,1.97,3.88,2.13,5.99,.41,5.45,.14,11.01,.16,16.48l.08,16.84,.04,8.42c.01,2.89,4.51,2.9,4.5,0-.06-13.01-.04-26.03-.18-39.04-.06-5.38-1.11-11.61-6.62-14.05s-10.58,1.86-11.96,7.1c-.77,2.92-.71,6.02-.81,9.01-.11,3.31-.22,6.62-.32,9.93-.19,6.46-.36,12.91-.45,19.37s-.1,13.08,.03,19.61,.17,13.06,.82,19.51c1.13,11.14,10.87,19.93,21.11,23.27,5.6,1.83,11.7,2.04,17.45,.8s11.13-3.77,14.27-8.79c3.1-4.94,4.58-11.09,4.63-16.88,.05-5.4-1.1-11.15-4.73-15.33s-9.8-5.82-15.17-5.78c-5.41,.05-10.9,2.11-14.42,6.34-3.66,4.39-4.64,10.42-2.55,15.77,1.78,4.54,5.61,8.61,10.57,9.52,4.66,.86,9.61-1.11,12.33-5.01,3-4.3,1.84-10.05-1.78-13.59-1.72-1.68-3.93-2.89-6.3-3.29-1.2-.2-2.42,.32-2.77,1.57-.3,1.08,.37,2.56,1.57,2.77h0Z"/><path class="cls-1" d="M192.26,105.51c0-3.32-.2-6.64-.37-9.95s-.69-6.78,.26-9.91c.71-2.35,2.71-4.07,5.01-4.82s5.42-.89,7.08,1.13c1.55,1.9,1.65,4.79,1.7,7.12,.09,3.54,.09,7.08,.13,10.63l.27,22.85,.3,25.33c.03,2.89,4.53,2.9,4.5,0-.2-16.56-.39-33.11-.59-49.67-.04-3.74,.1-7.53-.22-11.26-.27-3.08-.99-6.37-3.32-8.59-5.07-4.85-13.99-2.32-17.71,2.93-2.41,3.41-2.2,7.81-2.03,11.78s.47,8.28,.48,12.42c0,2.9,4.51,2.9,4.5,0h0Z"/><path class="cls-1" d="M210.68,100.02c-.31-3.5,2.47-6.24,5.7-7.07,1.48-.38,3.43-.39,4.71,.57,1.46,1.09,1.39,3.89,1.47,5.52,.28,5.11,0,10.29-.06,15.41l-.18,15.97-.2,17.97c-.03,2.9,4.47,2.9,4.5,0l.4-36.43c.03-2.97,.07-5.95,.1-8.92s0-5.86-.66-8.7c-1.21-5.29-6.84-7.03-11.63-5.62s-9.14,6-8.66,11.32c.11,1.21,.96,2.25,2.25,2.25,1.13,0,2.36-1.03,2.25-2.25h0Z"/><path class="cls-1" d="M227.32,116.97c1.61-3.08,4.3-7.65,8.47-7.07s4.92,5.86,5.01,9.14c.13,5.06-.04,10.14-.07,15.19l-.1,15.42-.2,31.1c-.03,4.76-.01,9.57-.28,14.33-.11,1.96-.43,3.97-1.23,5.78-.85,1.94-2.31,3.68-3.63,5.31-1.47,1.8-3.04,3.55-4.76,5.11-1.43,1.29-3.12,2.26-4.83,3.14-3.59,1.87-7.3,3.74-11.23,4.73-2.07,.52-4.17,.9-6.25,1.37-1.86,.41-3.7,.9-5.6,1.08-3.84,.37-7.7,.04-11.44-.91-7.69-1.95-14.67-6.28-20.08-12.05-2.88-3.07-5.44-6.6-7.01-10.53-1.78-4.46-2.29-9.31-2.5-14.06-.45-10.26,.59-20.51,.07-30.77-.13-2.54-.33-5.08-.59-7.61-.21-2.02-.8-4.48,.01-6.42,1.59-3.78,6.15,.63,7.51,2.49,1.11,1.52,1.81,3.2,2.18,5.03,.58,2.84,4.92,1.64,4.34-1.2-.9-4.4-3.66-8.32-7.45-10.71-2.14-1.35-4.69-2.24-7.13-1.15-2.07,.93-3.53,2.97-4.03,5.16-.58,2.57-.09,5.19,.17,7.77,.27,2.78,.46,5.56,.57,8.35,.22,5.67,.02,11.33-.14,16.99-.29,10.59-.69,22.17,4.72,31.68,4.54,7.99,11.95,14.57,20.24,18.47s17.23,5.16,26.04,3.02c4.59-1.11,9.23-1.74,13.53-3.81,4.01-1.94,8.24-3.6,11.66-6.51,1.97-1.68,3.71-3.66,5.33-5.67,1.52-1.88,3.18-3.84,4.19-6.04,2.16-4.69,1.83-9.78,1.99-14.81,.36-11.22,.22-22.47,.3-33.69s.21-22.67,.22-34c0-4.95-.68-10.32-4.92-13.5s-9.39-1.72-12.82,1.61c-1.75,1.69-3.02,3.82-4.14,5.96-1.34,2.56,2.54,4.84,3.89,2.27h0Z"/></svg>