<?xml version="1.0" encoding="UTF-8"?><svg id="Lag_1" xmlns="http://www.w3.org/2000/svg" viewBox="0 0 270 333"><defs><style>.cls-1{fill:#496259;}.cls-2{fill:none;stroke:#496259;stroke-miterlimit:10;stroke-width:2px;}</style></defs><path class="cls-1" d="M233.47,216.42c-9.25,9.23-20.6,15.71-35.38,15.71-27.46,0-53.29-20.82-53.29-68.16s26.42-70.12,55.82-70.12c10.15,0,20.3,2.75,29.7,7.66v29.27h-2.24l-11.94-31.23c-5.22-1.77-10.3-2.36-15.37-2.36-25.97,0-41.35,23.77-41.35,65.8s17.02,65.21,39.7,65.21c14.78,0,25.37-6.09,33.14-13.75l1.19,1.96h.02Z"/><g><path class="cls-1" d="M25,282.33v7.98H2.31v-1.08l16.79-31.39H8.35l-4.07,6.95h-.98v-7.83H24.81v.79l-16.92,31.68h12.07l4.07-7.09h.97Z"/><path class="cls-1" d="M57.27,273.56c0,11.43-4.79,17.39-13.84,17.39s-13.9-5.91-13.9-17.29,4.85-17.39,14.04-17.39,13.71,5.91,13.71,17.29h0Zm-21.58-.05c0,10.94,2.62,16.56,7.74,16.56s7.67-5.47,7.67-16.41-2.62-16.51-7.74-16.51-7.67,5.57-7.67,16.36Z"/><path class="cls-1" d="M91.11,256.95v.89h-4.13v32.47h-5.9l-14.49-28.13v27.25h4.79v.89h-10.23v-.89h4.13v-29.32l-1.18-2.27h-2.95v-.89h8.39l16.13,30.75v-29.86h-4.79v-.89h10.23Z"/><path class="cls-1" d="M116.89,282.18h.98v8.13h-23.81v-.89h4.13v-31.58h-4.13v-.89h22.56v7.44h-.98l-3.67-6.55h-8.13v15.08h7.08l2.23-4.93h.98v10.79h-.98l-2.23-4.98h-7.08v15.62h9.51l3.54-7.24Z"/><path class="cls-1" d="M146.47,287.01c-2.43,2.46-5.64,3.94-9.38,3.94-8.72,0-14.82-5.47-14.82-17.1s6.3-17.59,15.21-17.59c2.75,0,5.58,.54,7.74,1.53v7.74h-.98l-4.2-8.18c-.72-.15-1.51-.2-2.43-.2-5.44,0-9.12,5.81-9.12,16.51,0,11.63,3.67,16.31,8.98,16.31,3.41,0,6.23-1.38,8.26-3.35l.72,.39h.02Z"/><path class="cls-1" d="M171.52,281.19h.98v9.12h-23.54v-.89h4.13v-31.58h-4.13v-.89h14.04v.89h-4.26v31.58h8.79l4-8.23h0Z"/><path class="cls-1" d="M189.23,289.42v.89h-13.97v-.89h4.13v-31.58h-4.13v-.89h13.97v.89h-4.2v31.58h4.2Z"/><path class="cls-1" d="M222.42,256.95v.89h-4.13v32.47h-5.9l-14.49-28.13v27.25h4.79v.89h-10.23v-.89h4.13v-29.32l-1.18-2.27h-2.95v-.89h8.39l16.13,30.75v-29.86h-4.79v-.89h10.23Z"/><path class="cls-1" d="M239.34,289.42v.89h-13.97v-.89h4.13v-31.58h-4.13v-.89h13.97v.89h-4.2v31.58h4.2Z"/><path class="cls-1" d="M267.15,287.01c-2.43,2.46-5.64,3.94-9.38,3.94-8.72,0-14.82-5.47-14.82-17.1s6.3-17.59,15.21-17.59c2.75,0,5.57,.54,7.74,1.53v7.74h-.98l-4.2-8.18c-.72-.15-1.51-.2-2.43-.2-5.44,0-9.12,5.81-9.12,16.51,0,11.63,3.67,16.31,8.98,16.31,3.41,0,6.23-1.38,8.26-3.35l.72,.39h.02Z"/></g><path class="cls-1" d="M139.61,141.88v31.82H43.46v-4.32L114.6,44.25h-45.57l-17.23,27.7h-4.17v-31.23h91.14v3.14l-71.69,126.3h51.13l17.23-28.29h4.17Z"/><line class="cls-2" x1="14" y1="11" x2="14" y2="241"/><line class="cls-2" x1="256" y1="11" x2="256" y2="241"/><line class="cls-2" x1="13" y1="11" x2="257" y2="11"/><line class="cls-2" x1="256" y1="305" x2="256" y2="318"/><line class="cls-2" x1="14" y1="305" x2="14" y2="318"/><line class="cls-2" x1="13" y1="318" x2="257" y2="318"/></svg>