<?xml version="1.0" encoding="UTF-8"?><svg id="Layer_1" xmlns="http://www.w3.org/2000/svg" viewBox="0 0 300 300"><defs><style>.cls-1{fill:#f8f8f7;}.cls-2{fill:#89836a;}.cls-3{fill:none;stroke:#f8f8f7;stroke-miterlimit:10;stroke-width:5px;}</style></defs><circle class="cls-2" cx="150" cy="150" r="149.5"/><rect class="cls-3" x="56" y="85" width="188" height="120" rx="6.04" ry="6.04"/><path class="cls-1" d="M235.88,84.88c-10.7,12.43-22.18,24.15-33.98,35.54-5.9,5.7-11.88,11.32-17.86,16.93-5.92,5.56-11.68,11.41-17.92,16.61-5.51,4.58-12.77,8.81-20.23,7.65-3.56-.55-6.75-2.32-9.7-4.32s-5.68-4.22-8.37-6.52c-11.06-9.47-20.55-20.59-30.01-31.61s-19-22.11-30.14-31.49c-1.41-1.19-2.84-2.34-4.3-3.47-1.28-.99-2.99-1.25-4.24,0-1.03,1.03-1.29,3.25,0,4.24,11.8,9.13,21.79,20.27,31.49,31.53,9.72,11.27,19.26,22.79,30.35,32.76,2.83,2.54,5.75,4.95,8.77,7.26s6.39,4.59,10.06,6.09c7.85,3.21,16.52,1.37,23.62-2.85s13.03-10.53,19.07-16.19c6.13-5.76,12.27-11.5,18.36-17.29,12.1-11.52,23.97-23.31,35.07-35.81,1.41-1.59,2.81-3.19,4.19-4.8,1.06-1.23,1.21-3.04,0-4.24-1.08-1.08-3.18-1.23-4.24,0h0Z"/><path class="cls-1" d="M113.67,141.18c-8.86,5.43-15.47,13.47-22.4,21.05-7.3,7.98-15.41,15.13-23.18,22.64-4.41,4.26-8.69,8.65-12.62,13.35-1.04,1.24-1.22,3.03,0,4.24,1.07,1.07,3.2,1.25,4.24,0,6.92-8.28,14.91-15.53,22.74-22.92,3.86-3.65,7.69-7.33,11.33-11.21s6.77-7.57,10.27-11.25c3.83-4.03,7.89-7.82,12.65-10.73,3.29-2.01,.28-7.21-3.03-5.18h0Z"/><path class="cls-1" d="M182.68,143.02c15.5,14.92,30.68,30.16,45.66,45.59,4.24,4.37,8.48,8.74,12.72,13.11,2.69,2.78,6.93-1.47,4.24-4.24-15-15.45-29.98-30.92-45.34-46.01-4.33-4.25-8.68-8.48-13.05-12.69-2.78-2.68-7.03,1.56-4.24,4.24h0Z"/></svg>