<svg width="516" height="326" viewBox="0 0 516 326" fill="none" xmlns="http://www.w3.org/2000/svg">
<path d="M367 117C367 171.124 416 224 291.5 251C237.376 251 127 235.624 127 181.5C127 127.376 170.5 59.5 249 37C303.124 37 367 62.8761 367 117Z" fill="#FBF7E6"/>
<path d="M513.416 192.502C510.078 193.044 508.403 192.633 508.403 192.633C505.318 191.872 502.686 190.403 501.14 189.587C497.295 187.555 494.225 186.4 490.671 185.06C487.124 183.724 484.174 182.834 482.317 182.313C480.317 181.75 479.109 181.479 478.047 181.217C472.438 179.815 469.023 178.155 465.056 176.645C461.571 175.311 460.351 175.129 450.894 172.614C436.839 168.883 423.459 165.032 413.412 162.144C411.79 161.677 407.735 160.508 402.216 159.02C402.216 159.02 397.386 157.718 393.272 156.672C385.465 154.693 372.372 151.926 357.317 149.505C350.554 148.417 340.299 146.788 326.739 145.494C324.491 145.281 324.836 145.331 296.066 143.459C271.105 141.836 269.037 141.679 264.98 140.886C261.293 140.158 257.677 139.245 252.185 139.185C248.088 139.139 245.89 139.605 239.701 139.37C236.814 139.264 234.453 139.062 232.646 138.861C229.856 138.558 227.839 138.221 227.387 138.142C219.121 136.825 188.368 138.458 185.035 138.066C184.709 138.028 183.791 137.922 183.62 137.425C183.525 137.148 183.681 136.813 183.862 136.624C184.283 136.167 185.006 136.199 185.307 136.205C186.822 136.257 188.335 136.185 189.854 136.232C190.117 136.241 191.153 136.172 193.23 136.028C197.494 135.735 197.159 135.7 198.098 135.686C200.45 135.646 200.688 135.895 203.267 135.834C204.177 135.811 204.742 135.765 206.559 135.622C208.31 135.484 209.583 135.382 210.517 135.304C210.517 135.304 211.604 135.213 212.986 135.106C214.355 134.992 218.592 134.701 222.489 134.679C227.191 134.659 227.247 135.069 234.888 135.3C236.954 135.36 236.499 135.314 240.051 135.4C246.224 135.546 249.418 135.618 253.32 135.862C257.773 136.139 261.231 136.519 264.943 136.92C272.229 137.718 271.838 137.912 274.501 137.989C280.044 138.142 280.821 137.259 286.223 137.564C289.421 137.744 288.776 138.031 294.325 138.573C299.083 139.033 299.808 138.847 304.464 139.343C305.824 139.486 305.961 139.525 312.08 140.357C315.107 140.767 318.726 141.261 321.835 141.668C331.239 142.898 332.343 142.879 333.487 143.067C334.019 143.159 334.404 143.259 334.515 143.282C337.842 144.056 345.849 144.403 345.849 144.403C349.391 144.562 348.761 144.454 350.407 144.568C351.581 144.652 354.092 144.857 358.198 145.574C361.063 146.07 361.225 146.212 367.032 147.426C371.368 148.333 371.235 148.245 374.429 148.931C378.893 149.889 379.589 150.15 383.758 151.08C392.119 152.946 390.945 152.248 394.351 153.254C398.18 154.383 401.797 155.893 405.538 156.82C407.249 157.245 408.755 157.598 408.755 157.598C410.944 158.117 411.814 158.299 415.069 159.117C419.161 160.141 419.353 160.248 424.996 161.697C431.324 163.321 431.635 163.324 434.61 164.132C439.25 165.381 441.133 166.075 445.79 167.51C456.643 170.839 456.499 170.183 465.608 173.068C470.698 174.684 475.393 176.36 479.045 177.671C480.235 178.098 483.36 179.224 487.497 180.775C492.302 182.588 502.137 186.356 506.744 188.014C508.853 188.775 511.69 189.789 512.685 189.871C512.73 189.871 513.222 189.913 513.797 190.154C514.179 190.314 514.459 190.438 514.605 190.719C514.847 191.162 514.622 191.763 514.294 192.101C513.974 192.425 513.564 192.494 513.414 192.518L513.416 192.502Z" fill="#779B8E"/>
<path d="M0.219069 120.612C15.5238 125.033 31.808 126.493 47.7181 125.126C55.694 124.323 63.5749 122.858 71.2398 120.553C75.0219 119.331 78.6335 117.796 82.5805 117.182C110.03 112.781 137.846 119.057 163.732 127.854C171.214 130.365 178.566 133.254 185.858 136.353L185.999 136.086C175.713 130.127 164.685 125.307 153.362 121.528C130.774 113.567 105.913 111.084 82.3713 116.188C78.4608 116.93 74.7209 118.484 70.9422 119.629C67.1654 120.714 63.2398 121.28 59.3216 121.763C47.5733 122.987 35.6823 123.241 23.8885 122.711C15.98 122.336 8.12251 121.466 0.28226 120.326L0.215074 120.618L0.219069 120.612Z" fill="#779B8E"/>
<path d="M232.505 135.831C229.926 121.535 224.513 107.305 215.276 95.8059C210.612 90.0288 204.827 85.2253 198.801 81.0215C192.801 76.7898 187.056 72.2647 181.487 67.5032C170.517 57.8102 158.639 49.052 149.406 38.0458C144.702 32.6039 140.512 26.7266 136.754 20.5744C133.465 15.1597 130.497 9.5612 127.834 3.83134L126.668 1.36774L126.381 1.46731C130.574 15.375 137.416 28.6947 146.903 40.0814C151.631 45.7567 157.19 50.7487 162.927 55.4005C175.645 65.9438 189.651 74.8338 202.451 85.2332C211.864 93.7268 218.781 104.488 224.219 115.78C227.317 122.271 229.849 129.036 232.201 135.903L232.499 135.828L232.505 135.831Z" fill="#779B8E"/>
<path d="M183.622 137.278C168.381 135.91 152.4 134.737 137.134 133.635C125.775 133.183 113.342 131.603 102.057 132.86C96.2448 133.466 90.5177 135.078 84.8968 136.535C81.2272 137.378 77.4142 137.564 73.6787 137.342C69.8753 137.114 66.3687 135.898 62.7553 134.654C57.2173 132.725 51.5243 131.114 45.7827 129.896C38.1917 128.186 30.3181 127.727 22.7229 126.296C15.1556 124.821 7.65923 122.704 0.311973 120.335L0.201805 120.611C7.23965 123.915 14.5792 126.639 22.1964 128.591C25.984 129.573 29.8957 130.199 33.7394 130.82C41.3604 132.038 48.8599 133.736 56.2679 135.809C60.055 136.833 63.6391 138.139 67.4921 139.116C73.3543 140.557 79.6855 140.193 85.4411 138.493C90.9887 136.667 96.3892 134.648 102.201 133.858C106.013 133.259 109.891 133.182 113.753 133.375C125.384 134.192 136.885 136.588 148.555 137.114C151.424 137.306 157.348 137.591 160.236 137.681C168.027 137.915 175.828 137.962 183.617 137.573L183.626 137.272L183.622 137.278Z" fill="#779B8E"/>
<path d="M231.541 136.128C225.009 132.715 218.906 128.676 213.548 123.849C208.206 119.11 204.164 113.041 199.66 107.308C195.226 101.52 190.575 95.8647 186.376 89.9028C183.063 85.4818 180.493 80.6048 177.081 76.2558C173.125 72.4035 168.067 69.6237 163.839 66.2477C158.044 61.8592 154.159 55.9542 151.746 49.2265C146.551 39.5012 139.165 31.1576 133.861 21.5772C130.232 15.4059 127.924 8.53957 126.732 1.37972L126.428 1.40738C126.612 8.74913 128.397 16.0636 131.725 22.6584C136.151 31.7111 142.212 39.8273 147.588 48.2504C149.106 50.5831 149.781 52.9879 151.15 55.4856C153.803 60.4737 157.663 64.9514 162.358 68.1528C165.44 70.331 168.721 72.0334 171.788 73.9924C173.269 74.9707 174.854 75.968 176.139 77.1442C177.375 78.3263 178.383 79.8878 179.421 81.3714C181.491 84.3783 183.528 87.4093 185.558 90.4363C191.682 99.5369 197.213 109.026 204.177 117.572C206.509 120.447 209.083 123.249 211.997 125.58C217.791 130.284 224.387 134.007 231.422 136.389L231.543 136.111L231.541 136.128Z" fill="#779B8E"/>
<path d="M230.909 136.65C219.959 138.144 209.049 140.671 198.639 144.427C190.058 147.451 181.791 151.629 174.664 157.229C171.475 159.675 168.635 162.533 165.862 165.414C160.332 171.037 153.764 175.702 146.576 179.03C143.001 180.692 139.186 181.824 135.418 183.352C127.881 186.365 120.873 190.634 114.382 195.363C98.1314 207.035 83.3526 220.627 70.1597 235.515L70.3771 235.724C76.3328 230.437 82.2831 225.172 88.3663 220.067C97.0407 212.584 107.087 204.77 116.29 197.843C119.441 195.444 122.627 193.161 125.986 191.115C129.356 189.067 132.81 187.183 136.396 185.545C139.966 183.906 143.76 182.437 147.333 180.493C150.896 178.578 154.23 176.315 157.457 173.909C160.667 171.501 163.689 168.866 166.568 166.102C177.807 154.772 193.149 149.144 208.001 143.827C215.547 141.284 223.249 139.133 230.971 136.951L230.912 136.661L230.909 136.65Z" fill="#779B8E"/>
<path d="M232.52 138.776C224.065 149.677 213.994 159.186 202.011 166.194C193.391 170.878 184.108 175.049 175.156 179.121C164.179 183.982 152.832 187.92 141.635 192.246C134.169 195.205 126.835 198.366 119.505 201.635C101.184 209.888 84.427 221.553 70.3141 235.625L70.5172 235.843C83.0367 226.011 96.2455 217.163 110.242 209.771C130.686 199.403 154.401 188.943 175.549 180.006C185.663 175.652 196.588 172.757 205.993 166.907C217.035 159.902 226.372 150.136 232.78 138.933L232.524 138.77L232.52 138.776Z" fill="#779B8E"/>
<path d="M321.548 142.582C321.983 128.732 317.619 111.601 307.548 101.388C304.885 98.7425 302.063 96.3787 299.313 93.9272C290.997 86.654 283.486 78.5512 276.523 70.0326C269.545 61.5394 262.993 52.3652 254.417 45.1906C248.8 40.3479 242.428 36.6375 236.841 31.8041C228.432 24.7208 221.036 16.6512 214.464 7.85088L214.203 8.00963C221.376 20.8613 231.505 32.3365 243.601 40.9893C249.609 45.2519 255.36 49.6233 260.361 54.8927C262.873 57.5083 265.28 60.2625 267.748 62.9916C272.672 68.5395 285.25 81.5051 290.532 87.0668L298.13 95.1C301.86 99.114 305.878 102.811 309.031 107.215C312.065 111.625 314.382 116.534 316.268 121.534C318.803 128.265 320.317 135.355 321.239 142.589L321.542 142.578L321.548 142.582Z" fill="#779B8E"/>
<path d="M321.467 142.454C308.947 134.905 296.728 126.678 287.047 115.814C282.147 110.456 278.348 104.113 273.732 98.4872C269.259 92.7197 263.945 87.5074 259.383 81.853C254.778 76.1111 252.019 69.6219 249.062 62.9347C247.528 59.6015 245.866 56.3143 244.118 53.0801C235.275 37.0846 224.982 21.9173 214.253 7.07475L213.999 7.23741C224.238 26.3867 236.434 44.8987 246.464 64.124C248.089 67.3544 249.52 70.6956 251.432 73.9404C253.353 77.156 255.609 80.1084 258.093 82.8826C263.126 88.2855 268.605 93.1064 272.941 99.0633C277.468 104.889 280.383 111.656 285.099 117.394C292.164 125.992 301.459 132.662 311.275 137.944C314.536 139.722 317.909 141.278 321.325 142.71L321.465 142.444L321.467 142.454Z" fill="#779B8E"/>
<path d="M321.24 143.273C311.005 145.952 301.195 150.437 292.369 156.233C288.858 158.564 285.6 161.276 282.293 163.81C275.662 168.805 268.714 173.434 261.436 177.505C255.933 180.515 250.202 183.176 244.343 185.454C236.463 188.445 228.03 190.261 220.624 194.466C216.869 196.501 213.312 198.919 210.028 201.616C203.442 207.024 197.684 213.052 191.572 218.675C179.459 230.084 166.751 240.873 153.759 251.446L153.939 251.686C171.597 240.352 188.095 227.102 202.861 212.275C208.688 206.393 214.703 200.782 221.86 196.533C227.183 193.24 232.951 190.863 238.857 188.737C246.74 185.713 254.41 182.202 262.027 178.589C271.543 174.075 280.9 168.8 288.922 162.03C298.672 154.231 309.734 148.351 321.352 143.551L321.251 143.271L321.24 143.273Z" fill="#779B8E"/>
<path d="M321.166 143.334C310.372 156.352 298.755 168.541 286.148 179.854C276.753 188.314 267.276 197.006 256.07 203.158C248.719 207.133 240.735 210.63 232.511 212.186C228.34 212.815 223.889 213.477 219.8 214.717C195.04 222.006 172.095 235.348 153.044 252.313L153.239 252.545C167.081 242.631 181.713 233.982 197.08 226.844C206.665 222.434 216.401 218.168 226.705 215.794C228.742 215.327 230.847 215.025 232.996 214.538C245.64 211.285 256.755 204.236 267.35 197.059C281.362 187.301 294.983 176.781 306.078 163.813C311.697 157.421 316.897 150.67 321.408 143.506L321.16 143.33L321.166 143.334Z" fill="#779B8E"/>
<path d="M400.819 157.382C383.493 162.035 366.802 170.199 353.465 182.134C350.155 185.157 347.04 188.384 344.18 191.817C341.345 195.239 338.783 198.826 335.866 202.164C330.073 208.82 323.448 214.774 316.801 220.592C306.727 229.152 295.924 236.888 283.864 242.421C275.776 246.198 266.988 248.169 258.951 252.152C246.825 258.031 235.6 265.741 225.808 274.821L226.007 275.046C235.804 267.757 246.158 261.364 257.195 256.135C266.202 251.605 276.144 249.636 285.233 245.217C293.355 241.242 300.976 236.368 307.954 230.705C314.898 225.083 321.088 218.666 327.372 212.384C333.746 206.244 339.507 199.384 345.446 192.895C354.619 183.477 365.352 175.55 376.831 169.019C380.665 166.829 384.637 164.862 388.648 162.962C392.656 161.052 396.783 159.38 400.901 157.65L400.803 157.364L400.819 157.382Z" fill="#779B8E"/>
<path d="M403.652 158.456C400.666 177.932 391.263 191.743 376.563 204.751C369.813 211.007 361.968 216.096 353.827 220.7C342.076 227.366 328.621 234.067 316.509 240.253C312.297 242.373 302.023 247.912 297.821 249.732C291.395 252.501 284.905 255.144 278.368 257.663C260.937 264.795 242.381 269.769 225.055 275.351C252.852 270.581 280.38 262.09 305.411 249.187C323.918 239.126 341.818 227.964 360.505 218.214C375.17 210.584 388.397 199.608 396.6 185.286C401.136 176.997 403.648 167.753 403.957 158.499L403.651 158.473L403.652 158.456Z" fill="#779B8E"/>
<path d="M401.921 156.38C388.493 146.47 376.363 134.816 366.605 121.408C363.049 116.631 359.319 110.978 355.932 106.004C352.579 100.919 348.851 95.3897 345.449 90.3978C341.415 84.3863 335.934 75.4882 332.024 69.2794C320.632 51.7682 309.991 33.6742 296.07 17.8847C290.488 11.5731 284.276 5.88142 277.848 0.419455L277.641 0.636389C280.447 3.75328 283.371 6.73944 286.154 9.85097C299.313 24.2007 311.735 44.2073 322.862 60.2708C329.853 70.6727 337.298 80.7616 344.588 90.9578C347.02 94.3578 349.428 97.7525 351.618 101.296C358.265 111.86 363.657 123.483 372.276 132.814C380.652 142.261 390.649 150.466 401.753 156.62L401.919 156.369L401.921 156.38Z" fill="#779B8E"/>
<path d="M405.176 157.198C402.055 140.683 395.267 124.522 384.957 111.036C379.932 104.551 373.967 97.8509 368.745 91.493C357.876 78.486 348.642 64.3413 337.221 51.7296C320.26 32.7964 301.054 15.6158 279.615 1.68409L279.429 1.92303C299.132 18.0532 317.563 35.3283 335.098 53.6166C346.372 65.8067 357.723 79.0595 367.964 92.0833C375.508 102.03 383.258 112.319 389.711 122.95C396.079 133.801 400.982 145.306 404.875 157.263L405.173 157.188L405.176 157.198Z" fill="#779B8E"/>
</svg>
