<?xml version="1.0" encoding="UTF-8"?><svg id="Layer_1" xmlns="http://www.w3.org/2000/svg" viewBox="0 0 45 45"><defs><style>.cls-1{fill:#f8f8f7;}.cls-2{fill:#87816a;}</style></defs><circle class="cls-2" cx="22.24" cy="22.5" r="22"/><path class="cls-1" d="M30.4,8.26l.09,4.42c0,.29,.15,.89,.02,1.16-.18,.4,.06,.15-.46,.19-.68,.06-1.37,.09-2.06,.09-2.06,0-5.16-.88-5.86,1.8-.3,1.15-.2,2.38-.17,3.56,.02,.93,.05,2.06,.78,2.74,.68,.64,1.71,.62,2.59,.61,1.49-.02,2.97-.17,4.46-.22l-1.12-1.12c.04,1.25-.23,2.41-.54,3.61-.1,.39-.16,1.37-.41,1.67-.3,.37-.58,.27-1.08,.23-1.52-.09-4.12-.51-4.32,1.62-.1,1.06,.05,2.25,.04,3.33l-.03,3.88v.97c-.12,.63,0,.65,.38,.06,0-.03-1.69,0-1.84,0-.97,0-2.53,.3-3.42-.08l.67,.52c-.38-.52-.17-2-.17-2.63,0-.93,.02-1.86,.04-2.79,.02-1.18,.47-3.65-.56-4.51s-2.83-.13-4.06-.41c-.56-.13-.39,.22-.43-.51-.03-.48-.07-.97-.09-1.45-.03-.57-.31-2.13,.02-2.58l-.67,.52c1.58-.62,4.07,.67,5.46-.55,.71-.62,.51-1.73,.49-2.58-.04-1.56-.23-3.15,.04-4.69,.48-2.65,2.11-4.59,4.75-5.3s5.83-.54,8.62-.4c1.45,.08,1.44-2.17,0-2.25-4.14-.22-9.48-.58-12.84,2.34-1.51,1.32-2.41,3.29-2.74,5.24-.2,1.2-.19,2.41-.14,3.62,.03,.78,.34,2.08,.06,2.84l.52-.67c-.37,.25-1.58,.06-2,.06-.72,0-1.51-.07-2.23,.03-1.81,.25-1.66,1.99-1.62,3.41,.03,1.05,.08,2.1,.2,3.15,.07,.65,.16,1.23,.71,1.63,.63,.46,1.57,.39,2.3,.42,.63,.02,2.07-.18,2.41,0l-.52-.67c.27,1,.09,2.3,.08,3.32-.01,.93-.04,1.86-.04,2.79,0,1.27-.33,3.5,1.02,4.22,.66,.36,1.59,.21,2.32,.21h2.76c1.82,0,2.74-.37,2.78-2.31s.04-4.04,.05-6.06c0-.55,.08-1.15,.01-1.7l-.04-.3c-.16,.42-.02,.56,.4,.42,.7,.19,1.67,.12,2.39,.13,1.55,.04,2.25-.93,2.6-2.34,.45-1.81,1-3.59,.94-5.47-.02-.59-.5-1.15-1.12-1.12-1.19,.04-2.38,.14-3.56,.19-.56,.02-1.13,.06-1.69,.02-.43-.03-.31-.03-.31-.52-.02-1.05-.14-2.14,.02-3.18,.08-.55,.03-.62,.59-.63s1.15,.06,1.72,.08c1.24,.06,2.49,.05,3.72-.08,.84-.09,1.73-.19,2.2-.99,.51-.87,.28-2.11,.26-3.06l-.08-3.96c-.03-1.45-2.28-1.45-2.25,0h0Z"/></svg>