<?xml version="1.0" encoding="UTF-8"?><svg id="Lag_1" xmlns="http://www.w3.org/2000/svg" viewBox="0 0 259 255.5"><defs><style>.cls-1{fill:none;stroke:#496259;stroke-miterlimit:10;stroke-width:3px;}.cls-2{fill:#496259;}</style></defs><path class="cls-2" d="M223.47,214.92c-9.25,9.23-20.6,15.71-35.38,15.71-27.46,0-53.29-20.82-53.29-68.16s26.42-70.12,55.82-70.12c10.15,0,20.3,2.75,29.7,7.66v29.27h-2.24l-11.94-31.23c-5.22-1.77-10.3-2.36-15.37-2.36-25.97,0-41.35,23.77-41.35,65.8s17.02,65.21,39.7,65.21c14.78,0,25.37-6.09,33.14-13.75l1.19,1.96Z"/><path class="cls-2" d="M129.61,140.38v31.82H33.46v-4.32L104.6,42.75H59.03l-17.23,27.7h-4.17v-31.23h91.14v3.14L57.08,168.66h51.13l17.23-28.29h4.17Z"/><line class="cls-1" x1="9" y1="6.5" x2="9" y2="236.5"/><line class="cls-1" x1="251" y1="6.5" x2="251" y2="236.5"/><line class="cls-1" x1="8" y1="6.5" x2="252" y2="6.5"/><line class="cls-1" x1="251" y1="236.5" x2="251" y2="249.5"/><line class="cls-1" x1="9" y1="236.5" x2="9" y2="249.5"/><line class="cls-1" x1="8" y1="249.5" x2="252" y2="249.5"/></svg>