<?xml version="1.0" encoding="UTF-8"?><svg id="Layer_1" xmlns="http://www.w3.org/2000/svg" viewBox="0 0 300 300"><defs><style>.cls-1{fill:#f6f6f5;}.cls-2{fill:#89836a;}</style></defs><circle class="cls-2" cx="150" cy="150" r="149.5"/><path class="cls-1" d="M59.46,88.39l17.52,22.94c2.83,3.71,5.71,7.39,8.48,11.15,2.43,3.3,4.77,6.75,6.44,10.51,3.06,6.92,2.17,13.59-.15,20.47s-5.68,13.37-6.94,20.51c-.65,3.68-.75,7.38,.07,11.04s2.66,7.01,5.04,9.91c4.68,5.7,11.65,9.34,18.56,11.57,8.49,2.74,17.46,3.71,25.84,6.82,7.48,2.77,13.92,7.7,20.3,12.36,6.71,4.9,13.53,9.45,21.46,12.15,8.4,2.86,17.36,3.78,26.18,4.31,4.62,.28,9.25,.47,13.87,.63s8.94,.45,13.38,.26c3.9-.16,7.91-1.21,10.17-4.66,2.13-3.25,1.46-7.61-.56-10.74-4.78-7.41-14.45-6.73-21.56-10.45-3.59-1.88-6.87-4.31-10.06-6.81s-6.61-5.17-9.69-8.02-5.7-5.86-7.86-9.38-4.05-7.55-6.13-11.3c-3.89-7.03-9.08-13.21-14.58-19.03-5.35-5.66-11-11.04-16.08-16.95-5.2-6.05-9.42-12.75-12.43-20.15-3.36-8.26-5.78-16.93-8.29-25.48s-4.95-17.67-6.17-26.74c-.59-4.41-.87-8.86-.83-13.31,.04-3.86-5.96-3.86-6,0-.19,18.28,5.4,36,10.71,53.29,2.54,8.25,5.35,16.53,9.66,24.06,3.91,6.83,9.11,12.85,14.51,18.53s10.82,10.84,15.79,16.67c2.39,2.8,4.62,5.73,6.58,8.85,2.22,3.53,4.01,7.3,5.99,10.96s4.44,7.48,7.38,10.72c2.77,3.05,5.91,5.74,9.12,8.32,6.49,5.22,13.11,10.85,21.18,13.44,3.68,1.18,7.76,1.55,11.14,3.54,1.28,.75,2.13,1.64,2.87,3.03,.27,.5,.47,1.02,.6,1.8,.06,.36,0,.08,0,0,.02,.21,.02,.43,.02,.64,0,0-.03,.52,0,.23s-.11,.45-.13,.53c-.13,.43-.28,.69-.78,1.15-.29,.27-.87,.58-1.25,.71-1.61,.55-2.84,.58-4.58,.59-4.53,.01-9.08-.17-13.61-.33-8.64-.31-17.39-.54-25.93-1.96-4.26-.71-8.47-1.73-12.52-3.23-3.66-1.36-7.1-3.25-10.39-5.34-6.64-4.24-12.68-9.35-19.38-13.48-3.53-2.17-7.25-4-11.16-5.4-4.16-1.48-8.47-2.47-12.78-3.44-7.59-1.7-15.2-3.32-21.8-7.49-2.65-1.67-5.28-3.88-7.04-6.36-.92-1.3-1.79-2.82-2.28-4.16-.54-1.48-.93-3.14-1.04-4.44-.3-3.47,.2-6.35,1.14-9.69s2.27-6.69,3.55-9.97c2.59-6.6,5.26-13.52,4.88-20.74-.44-8.48-4.97-15.8-9.92-22.42-5.56-7.44-11.26-14.77-16.9-22.15l-8.46-11.08c-.98-1.29-2.58-1.97-4.1-1.08-1.27,.74-2.07,2.81-1.08,4.1h0Z"/></svg>