<?xml version="1.0" encoding="UTF-8"?><svg id="Layer_1" xmlns="http://www.w3.org/2000/svg" viewBox="0 0 300 300"><defs><style>.cls-1{fill:#fafaf9;}.cls-2{fill:#89836a;}</style></defs><circle class="cls-2" cx="150" cy="150" r="149.5"/><path class="cls-1" d="M146.43,67.3c-8.2,9.79-15.8,20.22-20.51,32.17-2.3,5.83-3.82,12.04-4.16,18.31-.2,3.62,.37,7.1,2,10.35,1.38,2.76,3.38,5.31,5.55,7.5,8.51,8.61,21.91,11.96,32.78,5.71,11.19-6.44,13.43-20.63,10.03-32.15-4.23-14.32-15.54-25.08-20.34-39.11-.53-1.53-2.06-2.54-3.69-2.1-1.49,.41-2.62,2.15-2.1,3.69,4.04,11.8,12.37,21.25,17.72,32.38,4.31,8.95,6.52,21.3-.95,29.19s-18.86,6.53-26.6,.49c-3.92-3.06-8.03-7.78-8.38-12.95-.39-5.63,1.06-11.51,2.86-16.8,4.14-12.11,11.9-22.73,20.05-32.45,1.04-1.24,1.22-3.03,0-4.24-1.07-1.07-3.2-1.25-4.24,0h0Z"/><path class="cls-1" d="M147.42,133.31c4.19,.39,8.58-1.3,11.38-4.45s4.04-7.7,3.22-11.95c-.15-.8-1.11-1.25-1.85-1.05-.83,.23-1.2,1.05-1.05,1.85,.62,3.23-.36,6.78-2.6,9.2s-5.71,3.72-9.1,3.41c-.81-.07-1.5,.74-1.5,1.5,0,.87,.69,1.43,1.5,1.5h0Z"/><path class="cls-1" d="M167.32,190.52c-4.66-11.52-2.93-25.25,4.91-34.85,7.41-9.07,18.37-14.04,29.45-17.13,3.26-.91,6.56-1.67,9.89-2.32,3.6-.7,7.35-1.47,10.92-.2l-2.2-2.89c1.02,13.68,2.22,28.95-4.69,41.41-2.99,5.39-7.32,9.66-12.58,12.78s-11.17,4.99-17.38,5.91c-3.07,.45-6.85,.6-10.21,.47-1.63-.07-3.5-.22-4.97-.41-.66-.09-1.76-.2-2.51-.53,.06,.03,.24-.12-.12-.09-.58,.04,.05-.18-.05-.02-.06,.09,.03,.38-.04,.5,2-3.32-3.19-6.34-5.18-3.03-1.29,2.14-.81,4.77,.81,6.58,1.41,1.57,3.52,2.11,5.52,2.39,3.66,.51,7.34,.76,11.04,.63,7.27-.25,14.41-1.77,21.08-4.65s12.37-7.21,16.72-12.88c4.77-6.21,7.36-13.78,8.44-21.48,1.28-9.16,.79-18.38,.1-27.56-.11-1.42-.87-2.42-2.2-2.89-3.88-1.39-8.02-.9-11.98-.2-3.17,.57-6.33,1.24-9.45,2.04-6.31,1.61-12.53,3.75-18.35,6.7-11.95,6.06-21.74,16.25-24.62,29.65-1.69,7.86-1.17,16.23,1.86,23.71,.61,1.5,2,2.56,3.69,2.1,1.42-.39,2.71-2.18,2.1-3.69h0Z"/><path class="cls-1" d="M183.34,170.08c-12.44,11.92-24.16,25.59-28.88,42.53-1.3,4.68-2.01,9.55-2.03,14.41-.01,2.9,4.49,2.9,4.5,0,.06-16.61,8.89-31.5,19.65-43.56,3.16-3.54,6.51-6.91,9.94-10.19,2.1-2.01-1.09-5.19-3.18-3.18h0Z"/><path class="cls-1" d="M68.7,134.38c.83,8.23,2.07,16.43,3.77,24.53,1.55,7.38,3.57,14.74,7.13,21.43,3.12,5.85,7.55,11.13,13.16,14.73,6.26,4.01,13.74,5.21,21.06,5.31,6.58,.09,13.79-.42,19.15-4.66s6.54-11.29,5.73-17.76c-.87-7.01-2.88-14.26-5.96-20.61s-7.76-11.12-13.42-14.91c-6.27-4.19-13.5-6.88-20.75-8.83-8.65-2.32-17.62-3.54-26.57-3.68-3.86-.06-3.86,5.94,0,6,7.18,.11,14.3,.94,21.29,2.55,6.15,1.41,12.28,3.29,17.91,6.17,5.07,2.59,9.88,5.99,13.3,10.61,3.86,5.21,5.69,11.53,7.2,17.74,1.25,5.14,2.39,11.27-.49,15.86s-8.75,5.3-13.66,5.48c-6.21,.23-12.97-.04-18.69-2.75-5.25-2.49-9.43-6.68-12.5-11.56-4-6.36-6.11-13.65-7.72-20.93-1.8-8.15-3.1-16.41-3.94-24.72-.16-1.61-1.26-3-3-3-1.5,0-3.16,1.38-3,3h0Z"/><path class="cls-1" d="M110.16,174.48c3.66,1.55,6.65,4.37,9.46,7.1,3.1,3.01,6.22,6.02,8.98,9.36,5.03,6.08,8.4,13.46,10,21.17,.91,4.42,1.15,8.94,.82,13.43-.09,1.21,1.1,2.25,2.25,2.25,1.29,0,2.16-1.03,2.25-2.25,.64-8.64-.96-17.3-4.39-25.24-3.64-8.42-9.63-14.97-16.12-21.31-3.62-3.53-7.34-6.86-12.05-8.85-1.12-.47-2.48,.51-2.77,1.57-.36,1.3,.45,2.29,1.57,2.77h0Z"/></svg>