<?xml version="1.0" encoding="UTF-8"?><svg id="Layer_1" xmlns="http://www.w3.org/2000/svg" viewBox="0 0 300 300"><defs><style>.cls-1{stroke-width:6px;}.cls-1,.cls-2{fill:none;stroke:#f8f8f7;stroke-miterlimit:10;}.cls-3{fill:#f8f8f7;}.cls-4{fill:#89836a;}.cls-2{stroke-width:4px;}</style></defs><circle class="cls-4" cx="150" cy="150" r="149.5"/><path class="cls-3" d="M181.1,197.95c2.55,.41,4.72,1.69,6.95,2.93,1.99,1.11,3.57,2.79,4.8,4.69,2.74,4.23,3.57,9.19,1.08,13.74-2.48,4.51-7.04,7.13-11.72,8.87-4.95,1.84-10.12,3.15-15.32,4.04-10.78,1.85-21.97,1.73-32.72-.3-5.17-.98-10.31-2.36-15.21-4.29-4.43-1.75-8.85-4.3-11.61-8.3-3.03-4.38-3.99-9.85-.83-14.41,2.84-4.1,7.69-5.93,12.37-6.95,1.89-.41,1.09-3.3-.8-2.89-4.73,1.03-9.54,2.89-12.82,6.61-3.47,3.93-4.62,8.96-3.05,13.98,3.51,11.21,15.77,15.48,26.08,18.05,11.77,2.93,24.07,3.55,36.08,1.91,5.92-.8,11.77-2.15,17.41-4.11s10.59-4.51,13.87-9.31c3.58-5.23,3.49-11.46,.49-16.93-1.39-2.52-3.33-4.87-5.75-6.46s-5.52-3.25-8.51-3.74c-1.89-.31-2.7,2.58-.8,2.89h0Z"/><circle class="cls-2" cx="151.03" cy="113.92" r="28.44"/><path class="cls-1" d="M200,116c-1,25-29.55,95.3-50,96-14.93,.51-50-73-50-96,0-27.61,22.39-50,50-50s51.1,22.41,50,50Z"/></svg>