<?xml version="1.0" encoding="UTF-8"?>
<svg id="Lag_1" data-name="Lag 1" xmlns="http://www.w3.org/2000/svg" viewBox="0 0 281.67 81.53">
  <defs>
    <style>
      .cls-1 {
        fill: #ecde98;
      }
    </style>
  </defs>
  <path class="cls-1" d="m60.77,21.19c-7.95,19.07-15.9,38.14-23.85,57.21-1.08,2.6,3.33,4.46,4.57,1.93,9.01-18.46,18.99-36.74,32.16-52.61,3.28-3.96,6.76-7.76,10.44-11.35,1.84-1.8,3.74-3.54,5.68-5.23,1.54-1.33,3.01-2.82,4.73-3.56.79-.34,1.57-.51,2.18-.49.53.02.21.02.09,0,.66.09-.17.08.17.05.23-.02-.1.06-.14-.18.06.39.11-.06.07.29-.08.96-1.13,2.09-1.64,2.86-.8,1.21-1.58,2.43-2.36,3.66-3.02,4.78-5.9,9.65-8.61,14.6-6.13,11.18-11.44,22.79-15.95,34.71-.44,1.15.39,2.52,1.45,2.95,1.2.48,2.4.03,3.12-1.02,13-19.06,28.44-36.42,45.83-51.59,2.43-2.12,4.89-4.19,7.39-6.22.91-.74,1.82-1.46,2.92-1.9.5-.2.97-.24,1.3-.31.37-.08.34-.01.16,0-.18.02.18.19.03-.03l-.25-1.93c-6.41,17.5-14.48,34.36-24.06,50.34-2.74,4.56-5.6,9.05-8.57,13.46-.96,1.43.07,3.17,1.49,3.67,2.75.97,5.72,1.3,8.61.91,1.34-.18,2.5-1.02,2.5-2.5,0-1.21-1.15-2.68-2.5-2.5-2.51.33-4.89.11-7.28-.73l1.49,3.67c12.7-18.84,23.22-39.09,31.38-60.3.49-1.28.97-2.56,1.45-3.84.31-.84.56-1.59.19-2.48-.32-.76-.92-1.38-1.59-1.85-1.93-1.34-4.39-.98-6.43-.11-2.3.98-4.15,2.7-6.06,4.27-2.15,1.77-4.26,3.57-6.35,5.41-8.14,7.15-15.86,14.78-23.09,22.85-8.26,9.2-15.89,18.97-22.86,29.18l4.57,1.93c4.2-11.09,9.15-21.88,14.79-32.31,2.84-5.24,5.85-10.39,9.03-15.42.77-1.23,1.56-2.45,2.35-3.66.88-1.35,1.91-2.7,2.34-4.28.72-2.61-.49-5.42-3.09-6.33-4.7-1.65-9.11,2.39-12.33,5.19-4.1,3.55-7.97,7.37-11.61,11.39-7.37,8.11-13.85,17.02-19.68,26.29-6.58,10.47-12.35,21.43-17.77,32.54l4.57,1.93c7.95-19.07,15.9-38.14,23.85-57.21.52-1.25-.56-2.75-1.75-3.08-1.44-.4-2.55.49-3.08,1.75h0Z"/>
  <path class="cls-1" d="m120.36,50.87c9.18,2.16,20.18,1.71,26.52-6.28,1.37-1.73,2.49-3.69,3.04-5.85.61-2.4.1-5.31-2.64-6.08-2.34-.65-4.97.8-7.06,1.72s-4.25,2.07-6.25,3.34c-7.03,4.49-16.93,12.69-14.08,22.22,1.49,4.96,6.06,7.16,10.97,7.2s9.94-1.84,14.08-4.59c4.72-3.14,8.56-7.33,12.32-11.52,4.2-4.67,8.4-9.34,12.6-14.02l-3.93-3.03c-5.76,9.32-10.45,19.27-14.04,29.63-.44,1.28.5,2.73,1.75,3.08,1.42.39,2.57-.49,3.08-1.75,4.65-11.71,14.12-21.1,25.49-26.34,1.23-.57,1.53-2.34.9-3.42-.74-1.26-2.19-1.46-3.42-.9-12.62,5.81-22.67,16.43-27.79,29.33l4.82,1.33c3.45-9.95,8-19.47,13.53-28.43,1.47-2.38-2.01-5.17-3.93-3.03-3.15,3.5-6.3,7.01-9.45,10.51-2.87,3.19-5.67,6.45-8.73,9.46-2.9,2.85-6.11,5.44-9.87,7.08-3.2,1.4-7.41,2.36-10.8,1.09-3.01-1.13-3.53-4.66-2.66-7.4,1.1-3.43,4.03-6.15,6.67-8.45,2.93-2.55,6.24-4.68,9.74-6.37.42-.2,4.85-1.89,4.85-1.91,0-.07-1.03-.78-.88-.85.02-.01-.02.37,0,.3-.1.24-.16.69-.26.99-.22.71-.53,1.37-.9,2.01-4.49,7.78-14.65,7.93-22.36,6.12-3.13-.74-4.47,4.08-1.33,4.82h0Z"/>
  <path class="cls-1" d="m181.43,51.12c5.48.52,11.19,1.01,16.53-.65,4.49-1.4,8.68-4.24,10.84-8.52.77-1.52.08-3.1-1.49-3.67-7.89-2.84-17.2-1.39-24.03,3.44-3.49,2.47-7.04,6.02-8.25,10.23-1.41,4.95,1.72,9.65,6.24,11.53,4.8,1.99,10.52,1.13,15.4-.12,4.83-1.23,9.45-3.29,13.81-5.69,8.61-4.75,16.64-10.78,24-17.29,8.33-7.36,15.78-15.65,22.31-24.63.72-.99.27-2.54-.64-3.23-1.06-.8-2.29-.61-3.28.2-12.47,10.09-19.65,24.88-26.71,38.91-2.38,4.72-4.76,9.45-7.14,14.17-1.44,2.87,2.87,5.4,4.32,2.52,3.9-7.75,7.73-15.54,11.74-23.23,3.53-6.77,7.31-13.54,12.1-19.51,2.75-3.42,5.81-6.57,9.22-9.32l-3.93-3.03c-10.29,14.15-23.18,26.46-37.81,36.05-7.27,4.77-15.38,9.24-24.18,10.18-3.53.38-8.64.42-10.45-3.38-1.51-3.18,1.9-6.72,4.07-8.69,5.83-5.28,14.48-6.95,21.85-4.3l-1.49-3.67c-4.23,8.37-15.25,7.43-23.05,6.69-1.35-.13-2.5,1.24-2.5,2.5,0,1.46,1.15,2.37,2.5,2.5h0Z"/>
  <path class="cls-1" d="m219.31,35.48c-2.58,1.17-7.43,3.41-6.7,6.94.32,1.53,1.4,2.36,2.6,3.21,1.37.98,2.81,1.87,4.31,2.65,5.46,2.85,11.41,4.24,17.49,4.96s12.32,1.04,18.43.73c6.25-.31,12.42-1.57,18.01-4.47,2.76-1.43,5.7-3.15,6.88-6.19s-.01-6.29-2.79-7.8c-2.55-1.39-5.93-1.39-8.76-1.39s-5.93.35-8.79,1.06c-5.73,1.44-11.03,4.47-15.37,8.46s-7.3,10.68-4.47,16.35c3.31,6.65,11.88,6.58,18.26,6.99,7.17.46,14.69.42,21.45-2.33,1.25-.51,2.13-1.66,1.75-3.08-.33-1.18-1.82-2.26-3.08-1.75-4.82,1.96-9.95,2.44-15.11,2.36-2.6-.04-5.2-.21-7.8-.41-2.31-.18-4.64-.29-6.87-.96-1.86-.56-3.55-1.61-4.33-3.47s-.32-4.1.5-5.89c1.85-4.03,6.04-6.9,9.83-8.93s8.25-3.22,12.66-3.38c2.24-.08,4.74-.15,6.92.45,1.53.42,1.85,1.53.83,2.79-.67.82-1.68,1.35-2.58,1.88-1.14.67-2.32,1.29-3.53,1.82-2.13.93-4.4,1.58-6.68,2.06-4.75.98-9.66,1.02-14.49.85-5.56-.19-11.17-.5-16.61-1.74-2.52-.57-5.05-1.32-7.41-2.4-1.25-.57-2.47-1.2-3.65-1.91-.67-.4-1.32-.82-1.96-1.26-.23-.16-.45-.4-.71-.5-.57-.23.06-.12,0,.26l-.34,1.26c.27-.61,1.2-1.05,1.79-1.42.91-.57,1.86-1.05,2.83-1.49,1.23-.56,1.53-2.34.9-3.42-.74-1.26-2.19-1.46-3.42-.9h0Z"/>
  <path class="cls-1" d="m27.87,42.16c-8.76-1.23-17.62-.67-26.12,1.85-3.08.91-1.77,5.74,1.33,4.82,7.58-2.25,15.61-2.95,23.46-1.85,1.34.19,2.69-.33,3.08-1.75.32-1.17-.4-2.89-1.75-3.08h0Z"/>
</svg>