<svg width="692" height="607" viewBox="0 0 692 607" fill="none" xmlns="http://www.w3.org/2000/svg">
<path d="M603.359 428.094C602.233 424.562 597.161 423.86 590.846 421.975C585.114 420.261 589.49 420.893 568.861 412.332C558.545 408.046 559.086 408.568 552.591 405.739C544.146 402.05 541.301 400.337 533.615 396.736C525.151 392.77 521.645 391.598 511.107 387.246C480.496 374.593 480.389 372.208 458.764 364.064C454.32 362.388 448.69 360.37 440.991 356.614C431.498 351.986 425.179 347.8 422.338 346.008C405.745 335.543 397.049 336.873 375.284 327.484C363.732 322.506 353.974 316.022 334.21 303.444C321.032 295.058 312.109 288.645 294.811 276.164C270.375 258.537 267.368 255.35 240.852 236.219C217.099 219.086 220.198 222.173 209.696 214.064C192.3 200.635 161.609 175.047 159.588 171.997C159.463 171.803 158.759 170.664 158.226 170.792C157.879 170.882 157.676 171.491 157.696 171.977C157.733 172.929 158.603 173.613 158.976 173.903C160.81 175.33 162.529 176.907 164.368 178.346C164.681 178.591 165.837 179.696 168.137 181.912C172.867 186.458 172.445 186.167 173.534 187.104C176.269 189.467 176.802 189.408 179.784 192.027C180.832 192.946 181.456 193.554 183.455 195.52C188.504 200.483 189.905 201.873 190.508 202.461C194.535 206.376 195.412 205.958 202.014 211.172C207.78 215.717 207.916 216.672 216.543 223.793C218.12 225.1 219.656 226.319 222.726 228.757C230.146 234.662 233.993 237.723 238.842 241.276C244.371 245.331 248.831 248.288 253.626 251.459C263.017 257.686 262.765 257.069 265.972 259.606C272.664 264.889 272.685 266.689 279.363 271.658C283.322 274.598 282.849 273.617 289.937 278.444C296.019 282.578 296.683 283.51 302.672 287.515C304.417 288.685 304.618 288.772 312.681 293.808C316.663 296.301 321.431 299.281 325.509 301.855C341.007 311.649 339.049 310.904 342.096 312.426C348.25 315.516 351.869 316.379 357.592 320.587C358.848 321.506 359.687 322.216 362.301 324.119C363.839 325.24 367.786 328.115 372.068 330.836C376.788 333.836 376.898 333.465 384.849 338.066C391.878 342.13 391.546 342.276 395.23 344.191C401.111 347.244 402.481 347.137 408.307 349.857C415.092 353.029 414.477 353.74 423.267 358.453C427.95 360.959 427.536 360.442 439.566 366.273C446.847 369.798 446.714 369.851 453.13 372.934C458.986 375.746 459.326 375.813 467.447 379.651C476.549 383.961 476.921 384.251 481.252 386.237C487.995 389.322 490.916 390.351 497.853 393.241C514.025 399.971 513.19 400.616 526.85 406.154C534.486 409.245 541.724 411.876 547.36 413.927C549.192 414.597 554.024 416.341 560.473 418.562C567.979 421.149 583.388 426.346 590.5 428.923C593.753 430.106 598.134 431.695 599.388 432.574C599.44 432.616 600.067 433.055 600.995 433.326C601.428 433.453 602.096 433.611 602.522 433.456C603.669 433.035 603.992 429.929 603.4 428.091L603.359 428.094Z" fill="#D2D0C2"/>
<path d="M405.836 347.049C405.965 348.18 406.308 349.741 407.215 351.356C407.907 352.59 408.692 353.356 409.019 353.776C413.589 359.478 418.873 363.895 420.406 365.212C420.406 365.212 427.779 371.525 434.543 381.099C445.171 396.121 440.696 417.156 439.578 422.428C435.131 443.376 421.513 456.013 411.157 465.655C405.568 470.862 393.073 482.28 373.389 489.476C350.402 497.867 331 495.608 297.371 491.688C278.319 489.471 263.392 485.835 257.637 484.361C246.916 481.612 245.228 480.517 227.544 475.216C221.92 473.529 216.687 470.567 210.966 469.267C210.85 469.236 210.228 469.108 210.227 468.948C210.231 468.801 210.758 468.709 210.888 468.685C213.25 468.24 215.479 467.18 217.845 466.746C221.565 466.06 226.527 463.44 229.307 462.07C243.609 455.053 260.821 451.63 282.891 438.505C295.927 430.753 305.655 424.971 313.411 414.318C318.945 406.719 319.452 402.169 327.233 394.393C331.111 390.52 335.474 387.164 334.648 383.722C333.878 380.474 328.952 379.108 328.673 379.038C327.513 378.727 324.733 378.226 320.426 380.182C313.685 383.26 310.122 389.24 309.497 390.275C300.087 405.829 270.761 431.635 257.053 442.172C243.807 452.351 232.534 460.772 216.377 461.306C214.407 461.373 204.386 461.574 193.005 456.64C186.838 453.972 178.01 445.47 160.605 428.593C142.764 411.299 149.087 416.054 141.585 408.93C138.698 406.183 136.46 402.829 133.797 399.86C133.797 399.86 133.085 399.066 129.81 392.737C129.653 392.431 129.265 391.666 129.549 391.331C129.875 390.944 130.883 391.308 131.038 391.365C133.508 392.17 158.073 391.249 163.903 390.934C193.063 389.375 230.069 377.579 232.707 376.725C246.342 372.318 266.093 365.937 265.46 360.498C265.078 357.228 257.494 355.632 255.298 355.184C240.353 352.098 229.315 358.769 213.79 364.791C203.51 368.782 192.132 371.255 169.392 376.208C140.265 382.54 131.753 381.759 124.245 377.907C117.041 374.205 113.174 368.925 108.383 362.372C100.401 351.466 97.2612 339.811 91.301 316.936C87.0588 300.655 85.0652 288.995 84.169 283.314C81.6616 267.441 80.4158 259.499 81.3109 251.762C82.8861 238.196 87.0375 237.895 90.7911 217.772C93.3425 204.09 91.5235 203.714 94.3791 195.817C97.6342 186.807 102.064 181.609 101.228 173.385C101.036 171.521 100.45 165.743 96.8235 163.972C95.4336 163.293 93.7412 163.271 93.6501 162.604C93.5188 161.592 97.2508 160.324 97.7649 160.147C105.715 157.381 116.127 145.463 126.489 136.57C134.875 129.374 148.764 118.974 159.77 118.242C165.448 117.862 170.188 119.636 170.188 119.636C174.091 121.088 176.664 123.272 178.174 124.62C186.341 131.931 193.881 142.178 202.062 154.792C205.855 160.636 207.795 163.642 209.981 167.81C211.065 169.889 212.416 172.622 217.085 182.647C221.739 192.635 222.934 195.36 224.97 195.441C227.387 195.537 229.791 191.875 230.792 189.021C235.484 175.684 217.549 157.523 205.814 145.648C201.877 141.662 193.427 133.551 182.144 126.171C176.577 122.528 166.165 116.359 162.771 115.365C160.694 114.758 158.968 113.218 156.874 112.674C156.803 112.653 156.496 112.581 156.435 112.375C156.386 112.235 156.488 112.09 156.522 112.034C157.876 109.93 159.944 109.129 159.944 109.129C165.878 106.839 170.799 102.419 176.628 99.8643C186.304 95.6125 185.732 95.0677 193.57 91.6166C213.056 83.0318 228.568 76.1881 242.244 81.9419C247.638 84.2068 250.604 87.5352 255.979 93.5644C259.373 97.3762 266.006 105.639 273.622 127.904C280.128 146.902 278.671 150.744 285.496 166.924C288.79 174.734 295.093 189.674 299.681 188.844C303.382 188.179 304.569 177.502 304.533 171.534C304.464 158.872 298.833 149.279 295.481 144.49C287.932 129.74 280.757 119.501 275.652 112.961C275.652 112.961 268.068 103.233 253.11 86.5247C251.846 85.1142 251.794 85.0517 251.794 85.0517C251.131 84.3481 251.042 84.3 251.046 84.222C251.189 82.7806 267.765 84.1398 267.765 84.1398C304.297 87.1408 322.563 88.6412 331.728 95.4869C341.473 102.762 346.278 112.079 350.321 119.953C352.7 124.572 358.623 137.068 360.113 154.493C362.622 183.784 349.892 195.26 358.036 218.22C358.625 219.877 363.364 232.351 367.902 231.868C374.345 231.191 376.441 204.73 376.965 198.177C381.45 141.569 360.63 93.2093 357.398 89.4375C357.192 89.1994 355.992 87.8958 356.386 87.0504C356.921 85.8775 360.16 86.3076 360.8 86.3941C362.504 86.6207 363.463 87.074 371.279 90.442C388.417 103.779 425.221 105.225 440.371 132.438C451.015 151.558 445.807 174.109 444.583 179.375C438.769 204.532 427.975 225.562 427.975 225.562C424.767 231.805 420.284 239.668 423.291 243.522C425.623 246.498 431.743 246.179 435.927 244.737C451.526 239.354 455.754 212.956 457.979 199.014C457.979 199.014 461.058 179.765 458.908 159.229C458.624 156.469 456.865 142.094 456.706 140.891C456.624 140.298 456.626 140.269 456.626 140.269C456.413 138.823 456.255 138.496 456.376 138.399C456.85 138.016 459.518 140.927 459.518 140.927C493.826 178.357 499.922 188.42 499.922 188.42C509.43 204.123 523.372 227.162 526.308 259.713C527.548 273.467 528.656 288.059 521.516 304.652C520.55 306.893 505.831 339.78 474.79 346.72C466.946 348.476 447.23 352.881 431.235 344.008C429.797 343.209 418.247 336.679 411.189 339.083C410.069 339.466 407.12 340.465 406.103 343.033C405.555 344.419 405.724 345.876 405.852 347.056L405.836 347.049Z" fill="#D2D0C2"/>
</svg>
