<?xml version="1.0" encoding="UTF-8"?><svg id="Layer_1" xmlns="http://www.w3.org/2000/svg" viewBox="0 0 547.35 449.33"><defs><style>.cls-1{fill:#ecde99;}</style></defs><path class="cls-1" d="M539.73,358.73c-1.13-3.53-6.2-4.23-12.51-6.12-5.73-1.71-1.36-1.08-21.98-9.64-10.32-4.29-9.78-3.76-16.27-6.59-8.45-3.69-11.29-5.4-18.98-9-8.46-3.97-11.97-5.14-22.51-9.49-30.61-12.65-30.72-15.04-52.34-23.18-4.44-1.68-10.07-3.69-17.77-7.45-9.49-4.63-15.81-8.81-18.65-10.61-16.59-10.46-25.29-9.14-47.05-18.52-11.55-4.98-21.31-11.46-41.07-24.04-13.18-8.39-22.1-14.8-39.4-27.28-24.44-17.63-27.44-20.81-53.96-39.95-23.75-17.13-20.65-14.05-31.16-22.15-17.4-13.43-48.09-39.02-50.11-42.07-.12-.19-.83-1.33-1.36-1.2-.35,.09-.55,.7-.53,1.18,.04,.95,.91,1.64,1.28,1.93,1.83,1.43,3.55,3,5.39,4.44,.31,.25,1.47,1.35,3.77,3.57,4.73,4.55,4.31,4.26,5.4,5.19,2.74,2.36,3.27,2.3,6.25,4.92,1.05,.92,1.67,1.53,3.67,3.49,5.05,4.96,6.45,6.35,7.05,6.94,4.03,3.92,4.9,3.5,11.51,8.71,5.77,4.54,5.9,5.5,14.53,12.62,1.58,1.31,3.11,2.53,6.18,4.96,7.42,5.9,11.27,8.97,16.12,12.52,5.53,4.05,9.99,7.01,14.78,10.18,9.39,6.23,9.14,5.61,12.35,8.15,6.69,5.28,6.71,7.08,13.39,12.05,3.96,2.94,3.49,1.96,10.57,6.79,6.08,4.13,6.75,5.07,12.73,9.07,1.74,1.17,1.95,1.26,10.01,6.29,3.98,2.49,8.75,5.47,12.83,8.05,15.5,9.79,13.54,9.05,16.59,10.57,6.15,3.09,9.77,3.95,15.5,8.16,1.26,.92,2.1,1.63,4.71,3.53,1.54,1.12,5.49,4,9.77,6.72,4.72,3,4.83,2.63,12.78,7.23,7.03,4.06,6.7,4.21,10.38,6.12,5.88,3.05,7.25,2.95,13.08,5.67,6.79,3.17,6.17,3.88,14.96,8.6,4.68,2.51,4.27,1.99,16.3,7.82,7.28,3.52,7.15,3.58,13.56,6.66,5.86,2.81,6.2,2.88,14.32,6.72,9.1,4.31,9.47,4.6,13.81,6.59,6.74,3.08,9.66,4.11,16.6,7,16.17,6.73,15.34,7.38,29,12.91,7.64,3.09,14.87,5.72,20.51,7.77,1.83,.67,6.66,2.41,13.11,4.64,7.51,2.59,22.91,7.78,30.03,10.36,3.25,1.18,7.63,2.77,8.89,3.65,.05,.04,.68,.48,1.61,.75,.43,.13,1.1,.29,1.53,.13,1.15-.42,1.47-3.53,.88-5.36h-.04Z"/><path class="cls-1" d="M342.2,277.68c.13,1.13,.47,2.69,1.38,4.31,.69,1.23,1.48,2,1.8,2.42,4.57,5.7,9.85,10.12,11.39,11.44,0,0,7.37,6.31,14.14,15.89,10.63,15.02,6.15,36.06,5.04,41.33-4.45,20.95-18.07,33.58-28.42,43.23-5.59,5.21-18.08,16.62-37.77,23.82-22.99,8.39-42.39,6.13-76.02,2.21-19.05-2.22-33.98-5.85-39.73-7.33-10.72-2.75-12.41-3.84-30.09-9.14-5.62-1.69-10.86-4.65-16.58-5.95-.12-.03-.74-.16-.74-.32,0-.15,.53-.24,.66-.26,2.36-.45,4.59-1.51,6.96-1.94,3.72-.69,8.68-3.31,11.46-4.68,14.3-7.02,31.51-10.44,53.58-23.57,13.04-7.75,22.76-13.53,30.52-24.19,5.53-7.6,6.04-12.15,13.82-19.92,3.88-3.87,8.24-7.23,7.42-10.67-.77-3.25-5.7-4.61-5.98-4.68-1.16-.31-3.94-.81-8.25,1.14-6.74,3.08-10.3,9.06-10.93,10.09-9.41,15.55-38.74,41.36-52.44,51.9-13.25,10.18-24.52,18.6-40.68,19.13-1.97,.07-11.99,.27-23.37-4.67-6.17-2.67-15-11.17-32.4-28.05-17.84-17.29-11.52-12.54-19.02-19.66-2.89-2.75-5.12-6.1-7.79-9.07,0,0-.71-.79-3.99-7.12-.16-.31-.54-1.07-.26-1.41,.33-.39,1.33-.02,1.49,.03,2.47,.81,27.04-.12,32.87-.43,29.16-1.56,66.17-13.35,68.8-14.21,13.63-4.41,33.39-10.79,32.75-16.23-.38-3.27-7.97-4.87-10.16-5.31-14.95-3.09-25.98,3.59-41.51,9.61-10.28,3.99-21.66,6.46-44.4,11.42-29.13,6.33-37.64,5.55-45.15,1.7-7.2-3.7-11.07-8.98-15.86-15.54-7.98-10.91-11.12-22.56-17.08-45.44-4.24-16.28-6.24-27.94-7.13-33.62-2.51-15.87-3.75-23.82-2.86-31.55,1.58-13.57,5.73-13.87,9.48-33.99,2.55-13.68,.73-14.06,3.59-21.96,3.26-9.01,7.68-14.21,6.85-22.43-.19-1.86-.78-7.64-4.4-9.41-1.39-.68-3.08-.7-3.17-1.37-.13-1.01,3.6-2.28,4.11-2.46,7.95-2.77,18.36-14.68,28.72-23.58,8.39-7.2,22.28-17.6,33.28-18.33,5.68-.38,10.42,1.39,10.42,1.39,3.9,1.45,6.48,3.64,7.99,4.98,8.17,7.31,15.71,17.56,23.89,30.17,3.79,5.84,5.73,8.85,7.92,13.02,1.08,2.08,2.43,4.81,7.1,14.84,4.65,9.99,5.85,12.71,7.88,12.79,2.42,.1,4.82-3.57,5.82-6.42,4.69-13.34-13.24-31.5-24.98-43.37-3.94-3.99-12.39-12.1-23.67-19.48-5.57-3.64-15.98-9.81-19.37-10.81-2.08-.61-3.8-2.15-5.9-2.69-.07-.02-.38-.09-.44-.3-.05-.14,.05-.29,.09-.34,1.35-2.1,3.42-2.9,3.42-2.9,5.93-2.29,10.85-6.71,16.68-9.26,9.68-4.25,9.1-4.8,16.94-8.25,19.49-8.58,35-15.43,48.67-9.67,5.39,2.26,8.36,5.59,13.74,11.62,3.39,3.81,10.03,12.07,17.64,34.34,6.51,19,5.05,22.84,11.87,39.02,3.29,7.81,9.6,22.75,14.18,21.92,3.7-.66,4.89-11.34,4.85-17.31-.07-12.66-5.7-22.25-9.05-27.04-7.55-14.75-14.72-24.99-19.83-31.53,0,0-7.58-9.73-22.54-26.44-1.26-1.41-1.32-1.47-1.32-1.47-.66-.7-.75-.75-.75-.83,.14-1.44,16.72-.08,16.72-.08,36.53,3,54.8,4.5,63.96,11.35,9.74,7.28,14.55,16.59,18.59,24.47,2.38,4.62,8.3,17.11,9.79,34.54,2.51,29.29-10.22,40.77-2.08,63.73,.59,1.66,5.33,14.13,9.87,13.65,6.44-.68,8.54-27.14,9.06-33.69,4.49-56.61-16.33-104.97-19.57-108.74-.21-.24-1.41-1.54-1.01-2.39,.54-1.17,3.77-.74,4.41-.66,1.7,.23,2.66,.68,10.48,4.05,17.14,13.34,53.94,14.78,69.09,42,10.64,19.12,5.44,41.67,4.21,46.94-5.81,25.16-16.61,46.19-16.61,46.19-3.21,6.24-7.69,14.11-4.68,17.96,2.33,2.98,8.45,2.66,12.64,1.21,15.6-5.38,19.83-31.78,22.05-45.72,0,0,3.08-19.25,.93-39.79-.28-2.76-2.04-17.14-2.2-18.34-.08-.59-.08-.62-.08-.62-.21-1.45-.37-1.77-.25-1.87,.47-.38,3.14,2.53,3.14,2.53,34.31,37.43,40.4,47.49,40.4,47.49,9.51,15.7,23.45,38.74,26.39,71.29,1.24,13.75,2.35,28.35-4.79,44.94-.97,2.24-15.68,35.13-46.73,42.07-7.84,1.76-27.56,6.16-43.56-2.71-1.44-.8-12.99-7.33-20.05-4.92-1.12,.38-4.07,1.38-5.09,3.95-.55,1.39-.38,2.84-.25,4.02h-.02Z"/></svg>