<svg width="672" height="1047" viewBox="0 0 672 1047" fill="none" xmlns="http://www.w3.org/2000/svg">
<path d="M824.644 837.918C818.881 835.288 816.731 832.908 816.731 832.908C812.772 828.522 810.285 823.509 808.773 820.635C805.016 813.487 801.508 808.505 797.451 802.733C793.401 796.973 789.792 792.527 787.478 789.788C784.988 786.835 783.408 785.159 782.046 783.649C774.871 775.643 771.376 769.518 766.863 763.054C762.906 757.361 761.212 755.812 749.279 742.079C731.534 721.681 714.966 701.799 702.522 686.876C700.515 684.465 695.495 678.438 688.552 670.392C688.552 670.392 682.475 663.351 677.232 657.452C667.275 646.267 649.976 628.364 629.262 608.956C619.957 600.237 605.826 587.05 586.207 570.944C582.954 568.278 583.434 568.713 540.864 535.897C503.928 507.427 500.893 505.035 495.462 499.586C490.536 494.624 485.92 489.449 477.472 483.644C471.17 479.314 467.258 477.75 457.918 470.951C453.558 467.785 450.117 465.017 447.535 462.826C443.537 459.456 440.775 456.836 440.161 456.244C428.775 445.607 379.331 416.163 374.589 412.088C374.125 411.691 372.816 410.573 373.09 409.624C373.242 409.097 373.848 408.74 374.334 408.635C375.481 408.364 376.567 409.165 377.028 409.486C379.32 411.143 381.742 412.605 384.047 414.256C384.445 414.543 386.126 415.514 389.502 417.451C396.429 421.431 395.947 421.027 397.418 421.983C401.107 424.366 401.207 424.999 405.272 427.586C406.706 428.497 407.632 429.014 410.604 430.681C413.469 432.288 415.552 433.452 417.085 434.303C417.085 434.303 418.868 435.291 421.126 436.564C423.373 437.81 430.256 441.764 436.322 445.783C443.633 450.64 443.274 451.335 454.868 459.638C458.006 461.878 457.351 461.335 462.765 465.162C472.175 471.806 477.049 475.24 482.833 479.673C489.436 484.733 494.385 488.917 499.705 493.4C510.134 502.211 509.318 502.107 513.363 504.996C521.79 510.995 523.951 510.435 531.995 516.524C536.758 520.128 535.447 519.902 543.461 526.511C550.338 532.173 551.664 532.639 558.344 538.248C560.297 539.884 560.468 540.087 569.051 547.738C573.299 551.521 578.374 556.05 582.753 559.914C595.997 571.599 597.73 572.717 599.298 574.198C600.024 574.895 600.512 575.45 600.659 575.601C604.977 580.26 617.014 589.123 617.014 589.123C622.333 593.053 621.473 592.23 623.902 594.119C625.63 595.469 629.301 598.398 634.889 603.778C638.793 607.528 638.891 607.915 646.577 615.836C652.313 621.75 652.204 621.475 656.413 625.859C662.294 631.987 663.089 633.115 668.544 638.891C679.483 650.476 678.419 648.175 682.608 653.275C687.321 659.007 691.292 665.108 696.086 670.435C698.279 672.873 700.23 674.986 700.23 674.986C703.06 678.067 704.213 679.254 708.371 683.907C713.604 689.749 713.786 690.115 720.963 698.227C729.013 707.325 729.492 707.654 733.228 711.999C739.068 718.759 741.233 721.793 746.899 728.86C760.114 745.305 760.603 744.139 771.596 758.082C777.735 765.88 783.196 773.359 787.436 779.189C788.819 781.089 792.442 786.083 797.175 792.789C802.659 800.596 813.82 816.663 819.164 824.024C821.61 827.397 824.908 831.918 826.363 833.08C826.431 833.127 827.149 833.704 827.779 834.674C828.199 835.32 828.498 835.804 828.42 836.391C828.314 837.329 827.314 838.027 826.44 838.209C825.592 838.38 824.881 838.06 824.624 837.942L824.644 837.918Z" fill="#779B8E"/>
<path d="M107.005 192.865C125.938 215.632 149.599 234.828 175.745 249.251C188.98 256.299 202.785 262.223 217.165 266.62C224.352 268.658 231.615 270.034 238.4 273.185C285.722 294.905 322.039 333.557 352.633 374.109C361.51 385.781 369.776 397.904 377.722 410.29L378.228 410.023C368.743 390.089 356.871 371.151 343.414 353.521C317.027 317.692 281.179 287.994 239.152 271.427C232.286 268.511 224.804 267.032 217.705 264.878C210.674 262.633 203.975 259.429 197.378 256.103C177.838 245.786 159.131 233.814 141.422 220.73C129.568 211.926 118.331 202.407 107.413 192.487L106.992 192.871L107.005 192.865Z" fill="#779B8E"/>
<path d="M450.599 457.984C462.096 433.14 469.129 405.453 467.274 378.022C466.305 364.216 462.544 350.755 457.758 337.972C453.044 325.173 449.043 312.186 445.57 299.013C439.071 272.581 430.151 246.654 427.767 219.992C426.373 206.664 426.249 193.197 427.092 179.753C427.861 167.938 429.328 156.173 431.411 144.523L432.273 139.49L431.722 139.347C423.146 165.266 419.317 193.029 421.681 220.545C422.859 234.259 426.066 247.778 429.917 260.954C438.205 290.522 450.281 318.866 458.851 348.296C464.237 371.25 463.296 395.125 459.488 418.284C457.254 431.568 453.847 444.688 450.051 457.778L450.594 457.971L450.599 457.984Z" fill="#779B8E"/>
<path d="M373.253 409.399C351.108 391.431 327.605 372.995 305.135 355.415C288.016 342.903 270.456 327.526 251.598 317.741C241.932 312.637 231.306 309.181 221.014 305.595C214.411 303.086 208.298 299.411 202.748 295.182C197.1 290.873 192.981 285.343 188.729 279.656C182.235 270.908 175.155 262.492 167.575 254.633C157.66 244.09 145.952 235.192 135.729 225.076C125.598 214.92 116.271 203.844 107.449 192.532L106.979 192.845C114.308 205.286 122.733 217.139 132.425 228.087C137.233 233.546 142.618 238.584 147.904 243.543C158.397 253.356 168.182 263.786 177.42 274.701C182.18 280.228 186.321 285.979 191.235 291.499C198.761 299.828 208.97 305.847 219.735 309.196C230.314 312.134 240.874 314.62 250.739 319.437C257.298 322.472 263.395 326.385 269.171 330.699C286.316 344.061 301.548 359.732 319.07 372.683C323.309 375.963 332.183 382.566 336.563 385.707C348.387 394.171 360.429 402.355 372.925 409.85L373.266 409.393L373.253 409.399Z" fill="#779B8E"/>
<path d="M448.784 457.441C442.356 445.359 437.274 432.752 434.2 419.697C431.055 406.797 431.367 393.185 430.6 379.615C429.999 366.033 428.919 352.43 428.872 338.821C428.528 328.523 429.829 318.29 429.254 308.001C427.296 297.915 422.468 288.347 419.574 278.717C415.348 265.89 415.724 252.695 419.277 239.758C421.764 219.28 419.358 198.666 421.52 178.299C422.583 164.959 426.448 151.915 432.36 139.576L431.859 139.303C424.186 150.875 419.025 164.07 417.036 177.754C414.086 196.39 414.685 215.274 413.889 233.921C413.713 239.115 412.154 243.545 411.569 248.841C410.275 259.332 411.404 270.286 415.213 280.131C417.629 286.712 420.871 292.763 423.502 298.989C424.737 302.045 426.113 305.239 426.83 308.398C427.466 311.517 427.335 314.985 427.337 318.364C427.287 325.178 427.159 331.995 427.026 338.798C426.655 359.273 424.944 379.735 426.477 400.223C426.975 407.104 427.929 414.125 429.919 420.769C433.802 434.084 439.993 446.715 448.316 457.722L448.804 457.416L448.784 457.441Z" fill="#779B8E"/>
<path d="M447.237 457.594C428.642 448.523 408.992 441.096 388.783 436.096C372.202 431.861 354.859 429.742 337.741 431.012C330.146 431.488 322.645 432.967 315.224 434.549C300.557 437.515 285.319 437.918 270.569 435.603C263.226 434.463 256.085 432.251 248.586 430.702C233.637 427.536 218.147 426.867 202.958 427.448C165.115 428.645 127.473 434.349 90.8844 443.71L90.9942 444.261C105.958 442.257 120.888 440.283 135.852 438.694C157.409 436.114 181.452 434.446 203.228 433.276C210.714 432.834 218.125 432.607 225.551 432.928C232.995 433.256 240.392 433.928 247.727 435.118C255.037 436.288 262.511 437.956 270.156 438.657C277.755 439.394 285.376 439.353 292.987 438.978C300.573 438.583 308.113 437.64 315.573 436.348C345.276 430.471 375.159 437.699 403.946 444.899C418.4 448.803 432.671 453.478 447.008 458.124L447.23 457.612L447.237 457.594Z" fill="#779B8E"/>
<path d="M447.431 462.564C422.508 470.671 396.59 474.94 370.417 473.344C351.978 471.642 333.066 468.457 314.775 465.461C292.489 461.583 270.631 455.889 248.585 450.954C233.804 447.777 219.008 445.052 204.102 442.498C166.755 436.241 128.134 436.902 91.0047 444.041L91.0826 444.591C121.147 442.367 151.214 442.385 180.924 445.478C223.854 450.663 271.955 459.106 314.425 467.243C334.824 471.008 354.897 477.881 375.818 478.59C400.528 479.212 425.587 473.781 447.664 463.077L447.444 462.558L447.431 462.564Z" fill="#779B8E"/>
<path d="M581.317 561.034C597.003 540.015 608.807 508.921 604.264 482.618C603.003 475.747 601.19 469.149 599.585 462.49C594.576 442.567 591.716 422.197 590.155 401.752C588.542 381.329 588.329 360.295 582.812 340.256C579.353 326.908 573.497 314.531 570.075 301.229C564.717 281.505 561.997 261.305 561.349 240.83L560.773 240.805C557.961 268.185 561.226 296.506 570.599 322.497C575.292 335.351 579.469 348.108 581.509 361.476C582.569 368.143 583.315 374.915 584.183 381.712C585.803 395.432 591.248 428.61 593.408 442.724L596.48 463.078C597.911 473.178 600.132 483.086 600.248 493.192C600.169 503.183 598.442 513.203 595.945 522.914C592.579 535.985 587.241 548.55 580.831 560.724L581.311 561.021L581.317 561.034Z" fill="#779B8E"/>
<path d="M581.33 560.751C570.104 536.03 560.079 510.57 556.846 483.664C555.058 470.263 556.045 456.479 554.986 442.959C554.303 429.367 551.716 415.762 550.772 402.253C549.856 388.563 552.613 375.635 555.278 362.194C556.512 355.432 557.5 348.609 558.295 341.777C561.924 307.786 562.407 273.571 561.862 239.406L561.292 239.394C556.409 279.726 555.25 321.104 549.961 361.336C548.979 368.034 547.576 374.701 547.022 381.719C546.515 388.701 546.813 395.624 547.657 402.508C549.603 416.117 552.87 429.286 553.136 443.03C553.838 456.767 551.023 470.289 552.113 484.087C553.747 504.762 560.927 524.766 570.418 543.161C573.546 549.308 577.089 555.228 580.832 560.999L581.337 560.732L581.33 560.751Z" fill="#779B8E"/>
<path d="M580.09 561.785C561.321 555.295 541.252 552.046 521.288 551.856C513.317 551.819 505.328 552.636 497.455 553.124C481.761 553.973 465.973 553.925 450.278 552.668C438.486 551.612 426.716 549.778 415.165 547.218C399.708 543.66 384.667 537.708 368.628 536.525C360.6 535.776 352.465 535.826 344.452 536.592C328.38 538.127 312.92 541.485 297.35 543.847C266.207 548.939 234.814 552.451 203.212 555.331L203.232 555.891C242.89 556.682 282.827 553.295 321.788 545.663C337.196 542.604 352.603 540.16 368.304 541.015C380.124 541.444 391.641 543.758 403.103 546.602C418.6 550.112 434.296 552.643 450.02 554.962C469.663 557.859 489.886 559.412 509.66 557.258C533.229 555.305 556.749 557.691 579.963 562.332L580.109 561.792L580.09 561.785Z" fill="#779B8E"/>
<path d="M579.91 561.802C549.067 570.758 517.846 577.575 486.04 582.004C462.306 585.351 438.195 588.969 414.155 586.856C398.451 585.373 382.283 582.495 367.847 576.355C360.7 572.993 353.082 569.391 345.401 567.062C299.117 552.617 249.086 549.443 201.165 555.933L201.217 556.495C233.419 555.518 265.477 557.325 297.035 562.238C316.674 565.367 336.391 568.877 354.937 575.91C358.601 577.306 362.192 579.025 366.05 580.505C389.178 588.61 414.048 589.239 438.251 589.129C470.55 588.571 503.068 586.428 534.323 577.86C549.963 573.793 565.34 568.735 580.099 562.319L579.904 561.789L579.91 561.802Z" fill="#779B8E"/>
<path d="M688.161 666.399C656.259 655.598 621.535 650.899 587.924 655.533C579.518 656.778 571.19 658.541 563.035 660.89C554.931 663.247 547.072 666.143 538.933 668.285C522.737 672.579 506.014 674.921 489.404 677.03C464.508 679.823 439.377 680.584 414.684 676.621C398.053 674.068 382.292 667.984 365.516 665.801C340.346 662.307 314.589 662.589 289.567 666.482L289.632 667.038C312.72 665.925 335.7 666.78 358.477 670.152C377.35 672.494 394.896 679.779 413.776 682.38C430.676 684.662 447.771 685.03 464.727 683.508C481.585 682.013 498.137 678.501 514.687 675.296C531.224 672.405 547.589 667.761 563.83 663.877C588.257 658.814 613.488 657.687 638.362 659.498C646.68 660.09 654.969 661.17 663.245 662.395C671.528 663.601 679.738 665.3 687.998 666.901L688.157 666.355L688.161 666.399Z" fill="#779B8E"/>
<path d="M691.39 671.011C665.65 698.098 636.104 709.73 599.217 714.612C581.972 717.29 564.295 717.022 546.686 715.695C521.244 713.81 493.122 710.208 467.641 707.203C458.814 706.112 436.884 704.014 428.398 702.466C415.434 700.078 402.508 697.427 389.645 694.534C354.893 687.467 320.736 675.883 287.827 666.52C336.089 688.029 387.965 703.489 440.754 709.515C480.348 713.161 520.195 714.469 559.733 718.785C590.736 722.204 623.138 718.944 651.377 705.27C667.393 697.137 681.307 685.419 691.816 671.394L691.37 671.036L691.39 671.011Z" fill="#779B8E"/>
<path d="M690.957 665.992C680.881 636.667 674.708 605.99 674.114 575.057C673.78 563.956 674.125 551.313 674.266 540.081C674.579 528.712 674.794 516.264 674.93 504.988C675.193 491.475 676.34 471.982 677.008 458.291C678.329 419.301 681.445 380.187 676.979 341.235C675.167 325.647 671.706 310.364 667.662 295.214L667.105 295.334C668.077 303.084 669.373 310.754 670.315 318.471C675.161 354.398 672.732 398.329 672.57 434.8C672.132 458.193 672.74 481.575 672.988 504.961C673.073 512.76 673.127 520.527 672.68 528.297C671.535 551.584 667.295 575.209 670.543 598.636C673.288 621.991 679.892 645.104 690.435 666.189L690.964 665.973L690.957 665.992Z" fill="#779B8E"/>
<path d="M695.114 670.645C708.177 641.798 715.172 609.686 713.807 578.061C713.046 562.783 711.061 546.195 709.858 530.909C707.107 499.444 708.123 467.916 704.088 436.49C698.316 389.504 687.165 342.901 669.03 299.011L668.483 299.188C681.544 344.68 691.39 390.624 698.751 437.207C703.015 467.827 706.246 500.173 708.006 531.011C708.92 554.275 709.782 578.283 708.262 601.473C706.372 624.916 701.503 647.848 694.579 670.433L695.122 670.626L695.114 670.645Z" fill="#779B8E"/>
</svg>
